<svg width="486" height="296" viewBox="0 0 486 296" fill="none" xmlns="http://www.w3.org/2000/svg">
<g id="Group 4">
<path id="Vector (Stroke)" fill-rule="evenodd" clip-rule="evenodd" d="M209.307 36.5481C147.758 13.6463 76.2404 23.3612 19.1592 55.4694C14.5863 58.0417 8.79397 56.4199 6.22172 51.847C3.64946 47.2741 5.2713 41.4818 9.8442 38.9095C71.0172 4.4997 148.361 -6.402 215.933 18.7411L215.934 18.7412L217.182 19.2056L217.182 19.2057C243.228 28.8997 268.187 38.1139 294.271 39.6482C299.617 39.9627 305.01 40.3589 310.401 40.755C328.568 42.0897 346.727 43.4238 363.088 41.6307C394.114 38.2306 424.387 26.4001 454.556 14.3325C459.427 12.3839 464.956 14.7534 466.904 19.6248C468.853 24.4962 466.484 30.025 461.612 31.9735C431.788 43.9034 399.165 56.7908 365.158 60.5176C346.881 62.5206 326.286 60.9964 307.854 59.6323C302.757 59.2551 297.826 58.8902 293.155 58.6154C263.985 56.8996 236.564 46.6931 211.168 37.2408L210.555 37.0125L210.555 37.0124L209.308 36.5483C209.307 36.5482 209.307 36.5482 209.307 36.5481ZM209.308 139.625C147.758 116.723 76.2406 126.438 19.1592 158.546C14.5863 161.119 8.79397 159.497 6.22172 154.924C3.64946 150.351 5.2713 144.559 9.8442 141.986C71.0172 107.577 148.361 96.6749 215.933 121.818L215.934 121.818L217.182 122.283L217.182 122.283C243.228 131.977 268.187 141.191 294.271 142.725C299.617 143.04 305.01 143.436 310.401 143.832C328.568 145.167 346.727 146.501 363.088 144.708C394.114 141.308 424.387 129.477 454.556 117.409C459.427 115.461 464.956 117.83 466.904 122.702C468.853 127.573 466.484 133.102 461.612 135.05C431.788 146.98 399.165 159.868 365.158 163.595C346.881 165.598 326.286 164.073 307.854 162.709C302.757 162.332 297.826 161.967 293.155 161.692C263.985 159.976 236.564 149.77 211.168 140.318L210.555 140.089L210.555 140.089L209.308 139.625ZM209.307 242.349C147.758 219.448 76.2404 229.163 19.1592 261.271C14.5863 263.843 8.79397 262.221 6.22172 257.648C3.64946 253.075 5.2713 247.283 9.8442 244.711C71.0172 210.301 148.361 199.399 215.933 224.542L215.934 224.543L217.182 225.007L217.182 225.007C243.228 234.701 268.187 243.915 294.271 245.45C299.617 245.764 305.01 246.16 310.401 246.556C328.568 247.891 346.727 249.225 363.088 247.432C394.114 244.032 424.387 232.201 454.556 220.134C459.427 218.185 464.956 220.555 466.904 225.426C468.853 230.298 466.484 235.826 461.612 237.775C431.788 249.705 399.165 262.592 365.158 266.319C346.881 268.322 326.286 266.798 307.854 265.434C302.757 265.056 297.826 264.692 293.155 264.417C263.985 262.701 236.564 252.494 211.168 243.042L210.555 242.814L210.555 242.814L209.308 242.35C209.307 242.35 209.307 242.349 209.307 242.349Z" fill="#93E9DA" stroke="black" stroke-width="9" stroke-linecap="round"/>
<path id="Ellipse 1" d="M479.12 261.989C480.03 276.413 469.727 287.764 453.692 288.776C445.473 289.295 435.778 287.065 428.094 282.739C420.326 278.366 415.56 272.448 415.155 266.027C414.924 262.378 415.768 255.045 417.644 245.687C419.49 236.484 422.242 225.761 425.585 215.541C428.942 205.282 432.83 195.726 436.895 188.751C438.933 185.256 440.909 182.592 442.747 180.825C444.623 179.019 445.952 178.529 446.729 178.48C447.431 178.436 448.599 178.702 450.334 180.164C452.067 181.624 453.973 183.962 455.975 187.174C459.966 193.58 463.811 202.602 467.207 212.443C474.016 232.176 478.613 253.966 479.12 261.989Z" fill="#93E9DA" stroke="black" stroke-width="9"/>
<path id="Ellipse 2" d="M277.12 261.989C278.03 276.413 267.727 287.764 251.692 288.776C243.473 289.295 233.778 287.065 226.094 282.739C218.326 278.366 213.56 272.448 213.155 266.027C212.924 262.378 213.768 255.045 215.644 245.687C217.49 236.484 220.242 225.761 223.585 215.541C226.942 205.282 230.83 195.726 234.895 188.751C236.933 185.256 238.909 182.592 240.747 180.825C242.623 179.019 243.952 178.529 244.729 178.48C245.431 178.436 246.599 178.702 248.334 180.164C250.067 181.624 251.973 183.962 253.975 187.174C257.966 193.58 261.811 202.602 265.207 212.443C272.016 232.176 276.613 253.966 277.12 261.989Z" fill="#93E9DA" stroke="black" stroke-width="9"/>
<path id="Ellipse 3" d="M378.12 199.989C379.03 214.413 368.727 225.764 352.692 226.776C344.473 227.295 334.778 225.065 327.094 220.739C319.326 216.366 314.56 210.448 314.155 204.027C313.924 200.378 314.768 193.045 316.644 183.687C318.49 174.484 321.242 163.761 324.585 153.541C327.942 143.282 331.83 133.726 335.895 126.751C337.933 123.256 339.909 120.592 341.747 118.825C343.623 117.019 344.952 116.529 345.729 116.48C346.431 116.436 347.599 116.702 349.334 118.164C351.067 119.624 352.973 121.962 354.975 125.174C358.966 131.58 362.811 140.602 366.207 150.443C373.016 170.176 377.613 191.966 378.12 199.989Z" fill="#93E9DA" stroke="black" stroke-width="9"/>
</g>
</svg>
