<svg width="438" height="503" viewBox="0 0 438 503" fill="none" xmlns="http://www.w3.org/2000/svg">
<g id="rainHour">
<g id="Group 3">
<g id="Vector (Stroke)">
<path fill-rule="evenodd" clip-rule="evenodd" d="M150.004 12.3781C140.893 10.0573 132.461 12.4477 122.163 16.2629C114.511 19.098 109.524 21.4331 107.077 26.6094C106.429 27.9813 106.263 30.334 106.814 33.9566C107.073 35.6589 107.45 37.4125 107.858 39.2222C107.927 39.5267 107.998 39.8367 108.069 40.1501C108.404 41.6176 108.755 43.1592 109.01 44.553C109.484 47.1527 110.416 49.5047 111.571 52.4193C111.88 53.1973 112.204 54.0154 112.539 54.8889C114.02 58.7447 115.594 63.4515 115.306 68.8911C115.197 70.9527 114.065 72.3069 113.292 72.9686C112.569 73.5866 111.865 73.8811 111.541 74.004C110.866 74.2599 110.276 74.3415 110.063 74.3695C109.532 74.4394 109.004 74.4504 108.65 74.4525C107.865 74.4571 106.864 74.4156 105.81 74.3559C103.663 74.2343 100.821 74.0085 97.9692 73.7687C96.586 73.6523 95.2241 73.5347 93.9173 73.4219C92.4628 73.2963 91.0766 73.1766 89.8052 73.071C88.6202 72.9727 87.5981 72.892 86.801 72.8374C86.4021 72.8101 86.079 72.7907 85.8309 72.7787C85.558 72.7656 85.4843 72.7659 85.4843 72.7659C78.3553 72.8659 72.8804 74.6849 70.4326 78.8426C68.3981 82.2984 68.3986 84.9129 68.3996 90.6802C68.3997 90.8124 68.3997 90.9462 68.3997 91.0818C68.3997 94.1285 69.3243 96.9888 70.8917 100.294C71.5604 101.705 72.2925 103.09 73.0974 104.614C73.2528 104.908 73.411 105.208 73.572 105.514C74.5362 107.345 75.5731 109.354 76.4917 111.488C77.0547 112.796 77.6236 114.238 77.9487 115.641C78.2557 116.966 78.5563 119.105 77.6211 121.308C76.5635 123.8 74.5061 125.099 72.713 125.723C71.0712 126.294 69.2684 126.452 67.6289 126.487C62.7964 126.589 58.5878 127.483 53.8901 129.237C51.9837 129.949 50.1408 130.608 48.3542 131.248C41.4934 133.702 35.4621 135.86 29.8465 139.553C28.4223 140.489 26.7336 140.714 25.2036 140.312C21.7199 140.639 18.8582 141.869 16.7112 143.694C14.2049 145.824 12.3305 149.053 11.7346 153.503C11.0317 158.752 12.0225 163.737 14.751 168.006C16.1931 170.262 17.9997 172.938 20.0394 175.139C22.2088 177.48 23.9178 178.483 24.9973 178.679C26.8204 179.009 28.2858 180.16 29.079 181.679C29.2106 181.74 29.341 181.806 29.4698 181.877C36.2659 185.636 46.4943 187.338 54.6706 186.505C58.3268 186.133 62.1065 184.929 66.046 183.346C66.7252 183.073 67.4654 182.73 68.4133 182.292C68.5586 182.225 68.7089 182.155 68.8645 182.084C69.9607 181.578 71.2653 180.985 72.6322 180.47C75.2053 179.501 78.9593 178.419 82.8675 179.374C86.5609 180.278 88.2209 183.216 88.9016 184.779C89.4433 186.022 89.8748 187.708 90.019 188.272C90.0422 188.363 90.0579 188.424 90.0655 188.45C90.7339 190.746 92.0128 192.431 94.0744 195.147C94.4888 195.693 94.9348 196.281 95.4139 196.924C100.319 203.504 107.315 210.732 113.754 213.26C121.576 216.332 130.337 217.424 137.949 215.922C145.429 214.445 151.648 210.532 155.318 203.528C155.715 202.77 156.126 201.965 156.555 201.126C159.344 195.663 162.883 188.729 168.228 183.774C170.033 182.101 172.406 181.661 174.509 182.224C176.169 182.668 177.339 183.639 177.956 184.214C179.26 185.429 180.352 187.061 181.113 188.297C181.943 189.643 182.704 191.06 183.278 192.151C183.425 192.431 183.549 192.666 183.66 192.879C183.786 193.122 183.898 193.334 184.011 193.549C184.166 193.841 184.24 193.972 184.258 194.006C184.258 194.006 184.263 194.015 184.247 193.991C185.582 196.054 187.985 197.98 191.38 199.899C193.765 201.247 196.168 202.35 198.647 203.489C199.768 204.004 200.904 204.526 202.061 205.08C204.692 206.342 208.888 208.031 212.861 208.828C214.848 209.226 216.517 209.346 217.778 209.215C219.036 209.084 219.454 208.757 219.55 208.665C220.221 208.023 220.98 206.936 221.89 205.263C222.328 204.459 222.753 203.612 223.208 202.695L223.341 202.426C223.744 201.615 224.18 200.737 224.62 199.908C224.733 199.696 224.96 199.246 225.273 198.624C226.289 196.608 228.214 192.789 230.088 189.465C231.344 187.238 232.754 184.903 234.109 183.091C234.768 182.209 235.583 181.221 236.51 180.415C236.975 180.011 237.639 179.502 238.483 179.101C239.312 178.707 240.694 178.242 242.379 178.494C243.722 178.694 244.636 179.309 245.062 179.639C245.526 179.999 245.836 180.353 246 180.555C246.326 180.955 246.523 181.31 246.595 181.442C246.76 181.746 246.861 181.999 246.889 182.071C246.966 182.263 247.019 182.426 247.036 182.481C247.083 182.625 247.126 182.772 247.155 182.875C247.219 183.099 247.3 183.393 247.383 183.703C247.46 183.988 247.54 184.285 247.624 184.598C247.74 185.03 247.864 185.494 248.003 186.004C248.232 186.85 248.46 187.672 248.649 188.31C248.716 188.535 248.772 188.716 248.815 188.852C254.241 198.07 262.231 204.021 272.152 210.293C283.338 217.365 294.314 220.974 306.634 218.99C315.147 217.618 320.886 215.756 323.2 210.655C326.095 204.272 329.798 197.768 333.494 191.986C334.344 190.656 336.091 188.203 338.149 186.055C339.171 184.99 340.446 183.81 341.88 182.895C343.166 182.074 345.471 180.884 348.262 181.247C350.742 181.569 352.547 183.158 353.274 183.819C354.265 184.721 355.197 185.792 355.951 186.703C356.458 187.315 356.999 187.998 357.46 188.579C357.67 188.844 357.863 189.088 358.03 189.295C358.711 190.144 358.959 190.402 358.959 190.402C362.747 193.776 368.266 195.969 374.691 197.079C381.061 198.179 387.848 198.129 393.642 197.419C393.819 197.397 394.013 197.374 394.222 197.349C396.148 197.118 399.346 196.735 402.209 195.994C403.339 195.701 404.208 195.402 404.822 195.133C404.748 193.616 404.514 191.953 404.209 189.988C404.179 189.793 404.148 189.594 404.116 189.391C403.747 187.031 403.306 184.205 403.27 181.381C403.188 174.83 402.594 168.545 401.754 161.849C401.754 161.849 401.741 161.773 401.703 161.579C401.675 161.435 401.648 161.302 401.616 161.145C401.591 161.018 401.562 160.875 401.527 160.699C401.389 160.01 401.209 159.072 401.086 158.11C400.973 157.231 400.85 155.936 401.001 154.647C401.077 154.005 401.258 153.004 401.794 151.964C402.373 150.842 403.496 149.457 405.417 148.782C407.144 148.175 408.907 147.634 410.539 147.133C410.876 147.029 411.208 146.928 411.532 146.827C413.49 146.222 415.273 145.648 416.967 144.973C423.451 142.39 426.067 137.167 426.439 129.852C426.825 122.273 424.632 113.533 422.28 106.411C419.445 97.8258 416.834 92.6406 411.045 90.7878C406.812 89.4329 402.275 88.9514 397.179 88.6092C396.324 88.5518 395.444 88.4981 394.546 88.4434C390.311 88.1852 385.668 87.9021 381.177 87.0742C378.492 86.5789 376.118 85.2688 374.519 82.9821C373.074 80.9159 372.694 78.6476 372.563 77.0582C372.454 75.7496 372.485 74.3179 372.508 73.2505C372.513 73.0437 372.517 72.8506 372.52 72.6747C372.541 71.3722 372.509 70.5813 372.4 70.0141C371.86 67.2035 371.403 64.4735 370.959 61.8168C369.753 54.6048 368.637 47.9327 366.175 41.6509C365.523 39.986 363.683 38.3315 359.859 36.7832C357.029 35.6376 354.041 34.8886 350.989 34.1235C349.919 33.8551 348.84 33.5848 347.758 33.2947C341.602 31.6443 336.698 30.6185 330.942 30.7227C329.567 30.7476 327.116 31.4427 323.243 32.9117C322.225 33.298 321.115 33.7345 319.951 34.1926C317.186 35.2806 314.111 36.4906 311.21 37.439C307.105 38.7809 302.308 39.978 297.82 39.5435C295.477 39.3167 293.045 38.6316 290.831 37.1552C288.588 35.6588 286.88 33.5564 285.713 30.9864C285.476 30.4644 285.022 29.8209 284.059 28.6351C283.972 28.5282 283.879 28.4143 283.78 28.2939C282.971 27.3052 281.803 25.8787 280.912 24.3165C279.23 21.3644 278.783 20.6419 277.323 19.7401C276.344 19.135 275.268 18.426 274.219 17.7351C273.973 17.5727 273.728 17.4114 273.486 17.2526C272.168 16.3869 270.856 15.5395 269.547 14.7691C266.768 13.1333 264.659 12.2532 263.247 12.0828C259.686 11.653 255.889 11.6226 251.832 11.7192C250.478 11.7514 249.054 11.7999 247.6 11.8493C244.881 11.9419 242.057 12.0379 239.397 12.0379C234.373 12.0379 230.493 12.9952 227.245 15.712C226.665 16.1973 225.558 17.5333 223.737 20.008C223.306 20.594 222.845 21.2294 222.361 21.8957C221.031 23.7268 219.532 25.7918 218.022 27.7105C215.972 30.3152 213.568 33.0946 210.985 35.124C208.592 37.0034 204.702 39.2948 200.164 38.1651C198.442 37.7365 197.118 36.8239 196.265 36.1332C195.369 35.4084 194.593 34.5947 193.997 33.936C193.654 33.5573 193.219 33.0549 192.872 32.6538C192.693 32.4467 192.537 32.2666 192.429 32.1444C192.216 31.9025 192.051 31.7222 191.917 31.585C191.797 31.4615 191.742 31.414 191.742 31.414C187.393 27.8712 182.52 24.9567 177.293 22.6008C168.643 18.7022 158.724 14.5992 150.004 12.3781ZM244.295 190.953L248.606 188.492L244.295 190.953ZM21.6322 189.662C17.3843 188.481 13.9807 185.511 11.5754 182.916C8.79891 179.92 6.53769 176.515 5.03463 174.163C0.718286 167.409 -0.70885 159.661 0.318755 151.987C1.25309 145.009 4.3636 139.111 9.23421 134.972C13.673 131.199 19.2867 129.129 25.3775 128.803C31.761 124.966 38.6835 122.501 45.05 120.234C46.692 119.649 48.297 119.078 49.8463 118.499C55.0121 116.571 59.9739 115.406 65.5011 115.094C64.8665 113.708 64.1503 112.317 63.3716 110.838C63.2281 110.565 63.0816 110.288 62.9329 110.007C62.129 108.486 61.262 106.845 60.4773 105.191C58.5896 101.21 56.8828 96.5647 56.8828 91.0818C56.8828 90.7201 56.8815 90.357 56.8803 89.9926C56.8622 84.7677 56.8432 79.2495 60.497 73.0432C66.2104 63.3384 77.4059 61.4103 85.3224 61.2993C86.3381 61.2851 88.5442 61.4589 90.762 61.643C92.0127 61.7468 93.4557 61.8713 94.9505 62.0003C96.2719 62.1144 97.6337 62.2319 98.9388 62.3417C100.372 62.4622 101.767 62.5761 103.05 62.6737C102.718 61.5185 102.289 60.3035 101.782 58.986C101.555 58.3943 101.304 57.7652 101.04 57.1039C99.8411 54.0994 98.3773 50.4315 97.6785 46.6044C97.4729 45.4785 97.1911 44.2406 96.8597 42.7845C96.7831 42.448 96.7038 42.0999 96.6223 41.7388C96.2057 39.8945 95.7514 37.8053 95.4272 35.6744C94.8119 31.6305 94.4692 26.3553 96.6568 21.7265C101.354 11.7876 110.978 8.17124 118.147 5.51512C128.524 1.67036 139.981 -2.01213 152.859 1.26817C162.611 3.75216 173.296 8.21181 182.042 12.1534C188.067 14.869 193.823 18.292 199.039 22.5417C199.862 23.2122 200.59 24.0189 201.082 24.5764C201.367 24.8996 201.583 25.1498 201.78 25.3785C202.033 25.6722 202.255 25.9305 202.555 26.2623C202.718 26.4421 202.862 26.5958 202.989 26.7268C203.208 26.5953 203.493 26.4024 203.852 26.1207C205.32 24.9671 207.04 23.0739 208.957 20.6375C210.319 18.9065 211.611 17.1263 212.898 15.3537C213.414 14.6438 213.928 13.9351 214.446 13.2313C216.052 11.0482 217.987 8.47867 219.837 6.93111C225.927 1.83799 232.868 0.570247 239.397 0.570247C241.888 0.570247 244.329 0.486277 246.893 0.398054C248.394 0.346438 249.937 0.293367 251.556 0.254803C255.773 0.154423 260.233 0.167326 264.633 0.698419C268.575 1.17422 272.436 3.14794 275.407 4.897C276.974 5.81901 278.483 6.79678 279.827 7.67932C280.109 7.86426 280.38 8.04313 280.643 8.21611C281.678 8.89785 282.574 9.48796 283.397 9.99666C287.435 12.4921 289.169 15.5521 290.674 18.2072C290.759 18.3581 290.844 18.5078 290.928 18.656C291.315 19.3348 291.854 19.9968 292.79 21.1486C292.862 21.2376 292.937 21.3295 293.014 21.4246C293.927 22.5488 295.285 24.2319 296.206 26.2598C296.588 27.1004 296.972 27.4481 297.241 27.6275C297.539 27.8269 298.041 28.0432 298.934 28.1296C300.917 28.3216 303.798 27.7922 307.618 26.5434C310.188 25.7031 312.712 24.7093 315.32 23.6819C316.57 23.1897 317.839 22.6897 319.143 22.1953C322.731 20.8342 327.029 19.3239 330.732 19.2569C338.128 19.123 344.279 20.4861 350.752 22.2213C351.473 22.4146 352.305 22.6223 353.214 22.8494C356.401 23.6456 360.54 24.6798 364.196 26.16C368.893 28.0616 374.488 31.3173 376.904 37.4819C379.841 44.9758 381.242 53.3803 382.499 60.9191C382.903 63.3408 383.291 65.6732 383.711 67.8574C384.065 69.6947 384.057 71.5343 384.035 72.8585C384.03 73.1695 384.025 73.4538 384.02 73.7162C384.001 74.6603 383.988 75.3223 384.027 75.9307C387.519 76.5181 391.081 76.7379 395.001 76.9798C395.963 77.0391 396.946 77.0998 397.954 77.1675C403.168 77.5176 408.906 78.0577 414.569 79.8702C426.509 83.6915 430.534 94.6917 433.221 102.829C435.673 110.257 438.439 120.659 437.941 130.432C437.431 140.47 433.323 150.81 421.245 155.62C419.096 156.476 416.94 157.163 414.947 157.779C414.578 157.893 414.217 158.005 413.861 158.114C413.507 158.223 413.16 158.329 412.817 158.435L412.823 158.468C412.845 158.576 412.87 158.702 412.896 158.831C412.936 159.026 412.976 159.228 413.007 159.385C413.056 159.635 413.132 160.027 413.178 160.399C414.046 167.312 414.696 174.076 414.786 181.238C414.811 183.212 415.13 185.266 415.527 187.824L415.592 188.239C415.99 190.809 416.456 193.918 416.347 197.078C416.205 201.169 413.242 203.529 411.435 204.617C409.458 205.807 407.115 206.572 405.108 207.092C401.426 208.046 397.433 208.518 395.572 208.738C395.372 208.761 395.197 208.782 395.049 208.8C388.346 209.622 380.402 209.704 372.724 208.378C365.101 207.062 357.256 204.272 351.28 198.948C350.439 198.199 349.593 197.153 349.033 196.454C348.776 196.135 348.537 195.833 348.305 195.54C347.892 195.018 347.499 194.522 347.064 193.997C346.968 193.881 346.875 193.769 346.785 193.663C346.687 193.76 346.586 193.863 346.482 193.972C345.081 195.433 343.783 197.246 343.21 198.143C339.718 203.607 336.305 209.621 333.696 215.375C328.54 226.742 316.232 229.06 308.473 230.31C292.434 232.894 278.598 227.952 265.979 219.975C256.165 213.77 246.516 206.896 239.656 195.93C238.135 198.677 236.808 201.313 235.858 203.198C235.417 204.073 235.058 204.786 234.799 205.273C234.438 205.952 234.075 206.683 233.659 207.522L233.532 207.778C233.077 208.693 232.568 209.713 232.016 210.727C230.948 212.69 229.51 215.038 227.533 216.931C224.99 219.366 221.809 220.326 218.972 220.621C216.139 220.915 213.219 220.597 210.588 220.07C205.326 219.015 200.171 216.902 197.065 215.413C196.245 215.02 195.312 214.591 194.309 214.13C191.66 212.912 188.522 211.47 185.695 209.872C181.73 207.631 177.405 204.589 174.566 200.203C174.292 199.78 174.009 199.247 173.825 198.9C173.71 198.683 173.566 198.408 173.418 198.125C173.303 197.905 173.185 197.68 173.077 197.474C172.886 197.112 172.688 196.739 172.485 196.365C170.509 199.188 168.803 202.497 166.94 206.111C166.481 207 166.013 207.909 165.529 208.833C159.967 219.448 150.459 225.143 140.188 227.171C130.049 229.172 119.034 227.661 109.528 223.928C99.895 220.145 91.2753 210.612 86.1662 203.759C85.8654 203.355 85.5339 202.926 85.1821 202.47C83.1046 199.777 80.3221 196.171 79.0039 191.643C78.9186 191.35 78.8399 191.05 78.7788 190.817L78.7639 190.76C78.7482 190.7 78.7331 190.643 78.7185 190.587C78.2049 190.692 77.5449 190.88 76.7061 191.196C75.7642 191.551 74.7898 191.989 73.7069 192.488C73.5728 192.55 73.4351 192.614 73.2944 192.679C72.3769 193.104 71.3337 193.587 70.357 193.98C66.0423 195.714 61.0901 197.379 55.8424 197.914C45.7408 198.942 33.0723 196.988 23.8767 191.901C22.8959 191.359 22.1366 190.573 21.6322 189.662Z" fill="black"/>
<path d="M122.163 16.2629C132.461 12.4477 140.893 10.0573 150.004 12.3781C158.724 14.5992 168.643 18.7022 177.293 22.6008C182.52 24.9567 187.393 27.8712 191.742 31.414C191.742 31.414 191.797 31.4615 191.917 31.585C192.051 31.7222 192.216 31.9025 192.429 32.1444C192.537 32.2666 192.693 32.4467 192.872 32.6538C193.219 33.0549 193.654 33.5573 193.997 33.936C194.593 34.5947 195.369 35.4084 196.265 36.1332C197.118 36.8239 198.442 37.7365 200.164 38.1651C204.702 39.2948 208.592 37.0034 210.985 35.124C213.568 33.0946 215.972 30.3152 218.022 27.7105C219.532 25.7918 221.031 23.7268 222.361 21.8957C222.845 21.2294 223.306 20.594 223.737 20.008C225.558 17.5333 226.665 16.1973 227.245 15.712C230.493 12.9952 234.373 12.0379 239.397 12.0379C242.057 12.0379 244.881 11.9419 247.6 11.8493C249.054 11.7999 250.478 11.7514 251.832 11.7192C255.889 11.6226 259.686 11.653 263.247 12.0828C264.659 12.2532 266.768 13.1333 269.547 14.7691C270.856 15.5395 272.168 16.3869 273.486 17.2526L274.219 17.7351C275.268 18.426 276.344 19.135 277.323 19.7401C278.783 20.6419 279.23 21.3644 280.912 24.3165C281.803 25.8787 282.971 27.3052 283.78 28.2939L284.059 28.6351C285.022 29.8209 285.476 30.4644 285.713 30.9864C286.88 33.5564 288.588 35.6588 290.831 37.1552C293.045 38.6316 295.477 39.3167 297.82 39.5435C302.308 39.978 307.105 38.7809 311.21 37.439C314.111 36.4906 317.186 35.2806 319.951 34.1926C321.115 33.7345 322.225 33.298 323.243 32.9117C327.116 31.4427 329.567 30.7476 330.942 30.7227C336.698 30.6185 341.602 31.6443 347.758 33.2947C348.84 33.5848 349.919 33.8551 350.989 34.1235C354.041 34.8886 357.029 35.6376 359.859 36.7832C363.683 38.3315 365.523 39.986 366.175 41.6509C368.637 47.9327 369.753 54.6048 370.959 61.8168C371.403 64.4735 371.86 67.2035 372.4 70.0141C372.509 70.5813 372.541 71.3722 372.52 72.6747L372.508 73.2505C372.485 74.3179 372.454 75.7496 372.563 77.0582C372.694 78.6476 373.074 80.9159 374.519 82.9821C376.118 85.2688 378.492 86.5789 381.177 87.0742C385.668 87.9021 390.311 88.1852 394.546 88.4434C395.444 88.4981 396.324 88.5518 397.179 88.6092C402.275 88.9514 406.812 89.4329 411.045 90.7878C416.834 92.6406 419.445 97.8258 422.28 106.411C424.632 113.533 426.825 122.273 426.439 129.852C426.067 137.167 423.451 142.39 416.967 144.973C415.273 145.648 413.49 146.222 411.532 146.827L410.539 147.133C408.907 147.634 407.144 148.175 405.417 148.782C403.496 149.457 402.373 150.842 401.794 151.964C401.258 153.004 401.077 154.005 401.001 154.647C400.85 155.936 400.973 157.231 401.086 158.11C401.209 159.072 401.389 160.01 401.527 160.699L401.616 161.145L401.703 161.579C401.741 161.773 401.754 161.849 401.754 161.849C402.594 168.545 403.188 174.83 403.27 181.381C403.306 184.205 403.747 187.031 404.116 189.391L404.209 189.988C404.514 191.953 404.748 193.616 404.822 195.133C404.208 195.402 403.339 195.701 402.209 195.994C399.346 196.735 396.148 197.118 394.222 197.349L393.642 197.419C387.848 198.129 381.061 198.179 374.691 197.079C368.266 195.969 362.747 193.776 358.959 190.402C358.959 190.402 358.711 190.144 358.03 189.295L357.46 188.579C356.999 187.998 356.458 187.315 355.951 186.703C355.197 185.792 354.265 184.721 353.274 183.819C352.547 183.158 350.742 181.569 348.262 181.247C345.471 180.884 343.166 182.074 341.88 182.895C340.446 183.81 339.171 184.99 338.149 186.055C336.091 188.203 334.344 190.656 333.494 191.986C329.798 197.768 326.095 204.272 323.2 210.655C320.886 215.756 315.147 217.618 306.634 218.99C294.314 220.974 283.338 217.365 272.152 210.293C262.231 204.021 254.241 198.07 248.815 188.852C248.772 188.716 248.716 188.535 248.649 188.31C248.46 187.672 248.232 186.85 248.003 186.004L247.624 184.598L247.383 183.703C247.3 183.393 247.219 183.099 247.155 182.875C247.126 182.772 247.083 182.625 247.036 182.481C247.019 182.426 246.966 182.263 246.889 182.071C246.861 181.999 246.76 181.746 246.595 181.442C246.523 181.31 246.326 180.955 246 180.555C245.836 180.353 245.526 179.999 245.062 179.639C244.636 179.309 243.722 178.694 242.379 178.494C240.694 178.242 239.312 178.707 238.483 179.101C237.639 179.502 236.975 180.011 236.51 180.415C235.583 181.221 234.768 182.209 234.109 183.091C232.754 184.903 231.344 187.238 230.088 189.465C228.214 192.789 226.289 196.608 225.273 198.624C224.96 199.246 224.733 199.696 224.62 199.908C224.18 200.737 223.744 201.615 223.341 202.426L223.208 202.695C222.753 203.612 222.328 204.459 221.89 205.263C220.98 206.936 220.221 208.023 219.55 208.665C219.454 208.757 219.036 209.084 217.778 209.215C216.517 209.346 214.848 209.226 212.861 208.828C208.888 208.031 204.692 206.342 202.061 205.08C200.904 204.526 199.768 204.004 198.647 203.489C196.168 202.35 193.765 201.247 191.38 199.899C187.985 197.98 185.582 196.054 184.247 193.991C184.263 194.015 184.258 194.006 184.258 194.006C184.24 193.972 184.166 193.841 184.011 193.549L183.66 192.879L183.278 192.151C182.704 191.06 181.943 189.643 181.113 188.297C180.352 187.061 179.26 185.429 177.956 184.214C177.339 183.639 176.169 182.668 174.509 182.224C172.406 181.661 170.033 182.101 168.228 183.774C162.883 188.729 159.344 195.663 156.555 201.126C156.126 201.965 155.715 202.77 155.318 203.528C151.648 210.532 145.429 214.445 137.949 215.922C130.337 217.424 121.576 216.332 113.754 213.26C107.315 210.732 100.319 203.504 95.4139 196.924C94.9348 196.281 94.4888 195.693 94.0744 195.147C92.0128 192.431 90.7339 190.746 90.0655 188.45L90.019 188.272C89.8748 187.708 89.4433 186.022 88.9016 184.779C88.2209 183.216 86.5609 180.278 82.8675 179.374C78.9593 178.419 75.2053 179.501 72.6322 180.47C71.2653 180.985 69.9607 181.578 68.8645 182.084L68.4133 182.292C67.4654 182.73 66.7252 183.073 66.046 183.346C62.1065 184.929 58.3268 186.133 54.6706 186.505C46.4943 187.338 36.2659 185.636 29.4698 181.877C29.341 181.806 29.2106 181.74 29.079 181.679C28.2858 180.16 26.8204 179.009 24.9973 178.679C23.9178 178.483 22.2088 177.48 20.0394 175.139C17.9997 172.938 16.1931 170.262 14.751 168.006C12.0225 163.737 11.0317 158.752 11.7346 153.503C12.3305 149.053 14.2049 145.824 16.7112 143.694C18.8582 141.869 21.7199 140.639 25.2036 140.312C26.7336 140.714 28.4223 140.489 29.8465 139.553C35.4621 135.86 41.4934 133.702 48.3542 131.248C50.1408 130.608 51.9837 129.949 53.8901 129.237C58.5878 127.483 62.7964 126.589 67.6289 126.487C69.2684 126.452 71.0712 126.294 72.713 125.723C74.5061 125.099 76.5635 123.8 77.6211 121.308C78.5563 119.105 78.2557 116.966 77.9487 115.641C77.6236 114.238 77.0547 112.796 76.4917 111.488C75.5731 109.354 74.5362 107.345 73.572 105.514L73.0974 104.614C72.2925 103.09 71.5604 101.705 70.8917 100.294C69.3243 96.9888 68.3997 94.1285 68.3997 91.0818L68.3996 90.6802C68.3986 84.9129 68.3981 82.2984 70.4326 78.8426C72.8804 74.6849 78.3553 72.8659 85.4843 72.7659C85.4843 72.7659 85.558 72.7656 85.8309 72.7787C86.079 72.7907 86.4021 72.8101 86.801 72.8374C87.5981 72.892 88.6202 72.9727 89.8052 73.071C91.0766 73.1766 92.4628 73.2963 93.9173 73.4219C95.2241 73.5347 96.586 73.6523 97.9692 73.7687C100.821 74.0085 103.663 74.2343 105.81 74.3559C106.864 74.4156 107.865 74.4571 108.65 74.4525C109.004 74.4504 109.532 74.4394 110.063 74.3695C110.276 74.3415 110.866 74.2599 111.541 74.004C111.865 73.8811 112.569 73.5866 113.292 72.9686C114.065 72.3069 115.197 70.9527 115.306 68.8911C115.594 63.4515 114.02 58.7447 112.539 54.8889C112.204 54.0154 111.88 53.1973 111.571 52.4193C110.416 49.5047 109.484 47.1527 109.01 44.553C108.755 43.1592 108.404 41.6176 108.069 40.1501L107.858 39.2222C107.45 37.4125 107.073 35.6589 106.814 33.9566C106.263 30.334 106.429 27.9813 107.077 26.6094C109.524 21.4331 114.511 19.098 122.163 16.2629Z" fill="white"/>
</g>
<g id="Vector (Stroke)_2">
<path fill-rule="evenodd" clip-rule="evenodd" d="M120.405 256.753C121.289 257.098 121.896 257.856 122.67 259.21C123.26 260.244 123.736 261.415 124.193 262.542C124.414 263.085 124.63 263.618 124.853 264.12C125.204 264.91 125.736 265.622 126.346 266.314C126.651 266.66 126.97 266.997 127.292 267.335L127.336 267.381C127.642 267.702 127.951 268.027 128.243 268.355C131.286 271.782 133.487 276.255 134.888 280.769C136.076 284.595 136.84 288.361 136.279 292.531C135.695 296.874 132.851 300.01 130.207 302.746C124.408 308.745 115.351 308.951 109.025 303.997C101.039 297.742 98.9369 287.214 101.5 277.336C101.879 275.876 102.174 274.383 102.469 272.875L102.491 272.762C102.779 271.295 103.069 269.813 103.438 268.36C103.896 266.554 105.018 265.358 106.298 264.457C107.113 263.884 108.034 263.405 108.892 262.967C108.786 262.769 108.825 262.517 108.999 262.36C109.551 261.863 110.106 261.265 110.696 260.628L110.734 260.587C111.306 259.968 111.907 259.318 112.541 258.728C113.83 257.531 115.337 256.503 117.168 256.503C117.395 256.503 117.612 256.501 117.818 256.5C118.261 256.497 118.655 256.494 118.999 256.508C119.512 256.528 119.975 256.585 120.405 256.753ZM110.547 262.247C110.842 261.941 111.136 261.624 111.43 261.307L111.456 261.278C112.036 260.651 112.616 260.024 113.222 259.461C114.461 258.309 115.728 257.503 117.168 257.503C117.417 257.503 117.645 257.501 117.856 257.5C118.283 257.497 118.639 257.494 118.96 257.507C119.431 257.525 119.764 257.576 120.041 257.684C120.573 257.892 121.034 258.362 121.801 259.706C122.36 260.684 122.789 261.744 123.231 262.832C123.457 263.392 123.687 263.958 123.939 264.526C124.35 265.451 124.958 266.25 125.596 266.975C125.915 267.338 126.247 267.687 126.568 268.025L126.608 268.066C126.917 268.391 127.216 268.705 127.495 269.019C130.418 272.31 132.561 276.644 133.933 281.065C135.103 284.832 135.821 288.437 135.288 292.398C134.753 296.378 132.146 299.301 129.488 302.051C124.07 307.656 115.594 307.871 109.642 303.209C102.055 297.267 99.9741 287.198 102.468 277.587C102.856 276.093 103.156 274.572 103.45 273.067L103.47 272.965C103.759 271.49 104.045 270.032 104.407 268.606C104.787 267.107 105.714 266.091 106.874 265.275C107.678 264.709 108.547 264.266 109.415 263.824C109.835 263.61 110.254 263.396 110.666 263.169C110.907 263.036 110.995 262.731 110.862 262.49C110.792 262.364 110.676 262.28 110.547 262.247ZM322.058 261.835C322.147 261.574 322.432 261.435 322.693 261.524C324.098 262.006 325.178 263.058 326.077 264.19C326.529 264.759 326.946 265.362 327.34 265.94C327.393 266.018 327.446 266.096 327.498 266.173C327.836 266.67 328.156 267.141 328.478 267.568C329.133 268.438 329.851 269.228 330.586 270.037C330.681 270.141 330.777 270.246 330.872 270.351C331.7 271.264 332.536 272.211 333.263 273.293C335.072 275.985 336.463 278.596 337.921 281.491C339.729 285.08 341.069 288.779 342.093 292.68C342.914 295.807 342.219 299.282 341.566 302.238C340.807 305.67 338.141 308.309 334.974 310.04C331.803 311.772 328.047 312.641 324.961 312.478C318.469 312.136 313.126 309.713 309.069 304.259C307.205 301.753 306.566 298.892 306.478 295.981C306.4 293.395 306.757 290.733 307.093 288.22C307.134 287.915 307.175 287.612 307.214 287.312C307.961 281.627 310.372 276.291 313.955 271.909C314.671 271.033 315.285 270.12 315.885 269.207C315.954 269.102 316.023 268.997 316.093 268.892C316.618 268.089 317.144 267.288 317.716 266.541C318.989 264.88 320.52 263.451 322.934 262.711C322.751 262.618 322.563 262.537 322.369 262.47C322.107 262.381 321.968 262.096 322.058 261.835ZM323.757 263.239C323.719 263.413 323.589 263.562 323.405 263.615C321.152 264.258 319.737 265.548 318.51 267.149C317.962 267.865 317.457 268.634 316.929 269.44C316.86 269.545 316.791 269.65 316.721 269.757C316.119 270.672 315.481 271.622 314.729 272.542C311.257 276.788 308.927 281.952 308.206 287.443C308.166 287.744 308.125 288.047 308.085 288.351C307.747 290.875 307.402 293.453 307.478 295.951C307.562 298.737 308.17 301.375 309.872 303.662C313.728 308.846 318.778 311.151 325.014 311.479C327.898 311.631 331.471 310.814 334.495 309.162C337.522 307.508 339.916 305.066 340.589 302.022C341.25 299.034 341.877 295.792 341.126 292.934C340.117 289.092 338.8 285.459 337.028 281.941C335.575 279.057 334.207 276.49 332.433 273.851C331.75 272.835 330.958 271.934 330.131 271.023C330.081 270.967 330.03 270.911 329.979 270.855C329.935 270.807 329.891 270.758 329.847 270.71C329.115 269.905 328.363 269.079 327.679 268.17C327.342 267.722 327.006 267.228 326.67 266.733C326.617 266.656 326.565 266.579 326.513 266.503C326.12 265.926 325.721 265.35 325.294 264.813C324.812 264.206 324.307 263.665 323.757 263.239ZM214.805 268.543C213.367 270.754 211.738 273.323 210.092 274.96C209.077 275.97 207.999 276.985 206.909 278.011C204.214 280.548 201.45 283.15 199.41 285.891C197.274 288.759 196.481 292.27 196.467 295.898C196.454 299.528 197.222 303.241 198.173 306.472C200.645 314.866 206.381 324.456 216.333 326.256C224.082 327.658 231.217 322.716 235.304 317.069C240.143 310.383 242.325 302.701 238.55 295.225C235.329 288.847 230.839 282.71 226.519 276.805C226.206 276.378 225.895 275.952 225.584 275.528C225.266 275.093 224.93 274.645 224.585 274.186C223.597 272.873 222.877 271.461 222 270C219.943 266.57 218.724 264.119 218.471 263.257C218.193 262.311 219.081 263.285 221.303 266.99C222.15 268.402 224.377 272.247 225.356 273.548C225.708 274.016 226.056 274.479 226.392 274.938C226.705 275.367 227.02 275.797 227.336 276.23C231.646 282.119 236.183 288.319 239.443 294.775C243.453 302.715 241.071 310.807 236.114 317.655C231.916 323.456 224.442 328.74 216.155 327.24C205.621 325.334 199.715 315.248 197.214 306.755C196.248 303.473 195.453 299.657 195.467 295.895C195.481 292.131 196.304 288.388 198.607 285.294C200.704 282.478 203.573 279.777 206.293 277.215C207.366 276.205 208.416 275.217 209.387 274.251C211.006 272.64 212.582 270.127 213.967 267.997C217.114 263.159 218.995 261.82 218.471 263.257C218.162 264.104 217.018 265.915 214.805 268.543Z" fill="#93E9DA"/>
<path d="M110.547 262.247C110.842 261.941 111.136 261.624 111.43 261.307L111.456 261.278C112.036 260.651 112.616 260.024 113.222 259.461C114.461 258.309 115.728 257.503 117.168 257.503C117.417 257.503 117.645 257.501 117.856 257.5C118.283 257.497 118.639 257.494 118.96 257.507C119.431 257.525 119.764 257.576 120.041 257.684C120.573 257.892 121.034 258.362 121.801 259.706C122.36 260.684 122.789 261.744 123.231 262.832C123.457 263.392 123.687 263.958 123.939 264.526C124.35 265.451 124.958 266.25 125.596 266.975C125.915 267.338 126.247 267.687 126.568 268.025L126.608 268.066C126.917 268.391 127.216 268.705 127.495 269.019C130.418 272.31 132.561 276.644 133.933 281.065C135.103 284.832 135.821 288.437 135.288 292.398C134.753 296.378 132.146 299.301 129.488 302.051C124.07 307.656 115.594 307.871 109.642 303.209C102.055 297.267 99.9741 287.198 102.468 277.587C102.856 276.093 103.156 274.572 103.45 273.067L103.47 272.965C103.759 271.49 104.045 270.032 104.407 268.606C104.787 267.107 105.714 266.091 106.874 265.275C107.678 264.709 108.547 264.266 109.415 263.824C109.835 263.61 110.254 263.396 110.666 263.169C110.907 263.036 110.995 262.731 110.862 262.49C110.792 262.364 110.676 262.28 110.547 262.247Z" fill="#93E9DA"/>
<path d="M323.405 263.615C323.589 263.562 323.719 263.413 323.757 263.239C324.307 263.665 324.812 264.206 325.294 264.813C325.721 265.35 326.12 265.926 326.513 266.503L326.67 266.733C327.006 267.228 327.342 267.722 327.679 268.17C328.363 269.079 329.115 269.905 329.847 270.71L329.979 270.855C330.03 270.911 330.081 270.967 330.131 271.023C330.958 271.934 331.75 272.835 332.433 273.851C334.207 276.49 335.575 279.057 337.028 281.941C338.8 285.459 340.117 289.092 341.126 292.934C341.877 295.792 341.25 299.034 340.589 302.022C339.916 305.066 337.522 307.508 334.495 309.162C331.471 310.814 327.898 311.631 325.014 311.479C318.778 311.151 313.728 308.846 309.872 303.662C308.17 301.375 307.562 298.737 307.478 295.951C307.402 293.453 307.747 290.875 308.085 288.351C308.125 288.047 308.166 287.744 308.206 287.443C308.927 281.952 311.257 276.788 314.729 272.542C315.481 271.622 316.119 270.672 316.721 269.757C316.791 269.65 316.86 269.545 316.929 269.44C317.457 268.634 317.962 267.865 318.51 267.149C319.737 265.548 321.152 264.258 323.405 263.615Z" fill="#93E9DA"/>
<path d="M214.805 268.543C213.367 270.754 211.738 273.323 210.092 274.96C209.077 275.97 207.999 276.985 206.909 278.011C204.214 280.548 201.45 283.15 199.41 285.891C197.274 288.759 196.481 292.27 196.467 295.898C196.454 299.528 197.222 303.241 198.173 306.472C200.645 314.866 206.381 324.456 216.333 326.256C224.082 327.658 231.217 322.716 235.304 317.069C240.143 310.383 242.325 302.701 238.55 295.225C235.329 288.847 230.839 282.71 226.519 276.805C226.206 276.378 225.895 275.952 225.584 275.528C225.266 275.093 224.93 274.645 224.585 274.186C223.597 272.873 222.877 271.461 222 270C219.943 266.57 218.724 264.119 218.471 263.257C218.162 264.104 217.018 265.915 214.805 268.543Z" fill="#93E9DA"/>
<path d="M329.847 270.71C329.115 269.905 328.363 269.079 327.679 268.17C327.342 267.722 327.006 267.228 326.67 266.733M329.847 270.71L329.979 270.855M329.847 270.71C329.891 270.758 329.935 270.807 329.979 270.855M326.67 266.733C326.617 266.656 326.565 266.579 326.513 266.503M326.67 266.733L326.513 266.503M326.513 266.503C326.12 265.926 325.721 265.35 325.294 264.813C324.812 264.206 324.307 263.665 323.757 263.239C323.719 263.413 323.589 263.562 323.405 263.615C321.152 264.258 319.737 265.548 318.51 267.149C317.962 267.865 317.457 268.634 316.929 269.44C316.86 269.545 316.791 269.65 316.721 269.757C316.119 270.672 315.481 271.622 314.729 272.542C311.257 276.788 308.927 281.952 308.206 287.443C308.166 287.744 308.125 288.047 308.085 288.351C307.747 290.875 307.402 293.453 307.478 295.951C307.562 298.737 308.17 301.375 309.872 303.662C313.728 308.846 318.778 311.151 325.014 311.479C327.898 311.631 331.471 310.814 334.495 309.162C337.522 307.508 339.916 305.066 340.589 302.022C341.25 299.034 341.877 295.792 341.126 292.934C340.117 289.092 338.8 285.459 337.028 281.941C335.575 279.057 334.207 276.49 332.433 273.851C331.75 272.835 330.958 271.934 330.131 271.023C330.081 270.967 330.03 270.911 329.979 270.855M218.471 263.257C218.724 264.119 219.943 266.57 222 270C222.877 271.461 223.597 272.873 224.585 274.186C224.93 274.645 225.266 275.093 225.584 275.528C225.895 275.952 226.206 276.378 226.519 276.805C230.839 282.71 235.329 288.847 238.55 295.225C242.325 302.701 240.143 310.383 235.304 317.069C231.217 322.716 224.082 327.658 216.333 326.256C206.381 324.456 200.645 314.866 198.173 306.472C197.222 303.241 196.454 299.528 196.467 295.898C196.481 292.27 197.274 288.759 199.41 285.891C201.45 283.15 204.214 280.548 206.909 278.011C207.999 276.985 209.077 275.97 210.092 274.96C211.738 273.323 213.367 270.754 214.805 268.543C217.018 265.915 218.162 264.104 218.471 263.257ZM218.471 263.257C218.193 262.311 219.081 263.285 221.303 266.99C222.15 268.402 224.377 272.247 225.356 273.548C225.708 274.016 226.056 274.479 226.392 274.938C226.705 275.367 227.02 275.797 227.336 276.23C231.646 282.119 236.183 288.319 239.443 294.775C243.453 302.715 241.071 310.807 236.114 317.655C231.916 323.456 224.442 328.74 216.155 327.24C205.621 325.334 199.715 315.248 197.214 306.755C196.248 303.473 195.453 299.657 195.467 295.895C195.481 292.131 196.304 288.388 198.607 285.294C200.704 282.478 203.573 279.777 206.293 277.215C207.366 276.205 208.416 275.217 209.387 274.251C211.006 272.64 212.582 270.127 213.967 267.997C217.114 263.159 218.995 261.82 218.471 263.257ZM122.67 259.21C121.896 257.856 121.289 257.098 120.405 256.753C119.975 256.585 119.512 256.528 118.999 256.508C118.655 256.494 118.261 256.497 117.818 256.5C117.612 256.501 117.395 256.503 117.168 256.503C115.337 256.503 113.83 257.531 112.541 258.728C111.907 259.318 111.306 259.968 110.734 260.587L110.696 260.628C110.106 261.265 109.551 261.863 108.999 262.36C108.825 262.517 108.786 262.769 108.892 262.967C108.034 263.405 107.113 263.884 106.298 264.457C105.018 265.358 103.896 266.554 103.438 268.36C103.069 269.813 102.779 271.295 102.491 272.762L102.469 272.875C102.174 274.383 101.879 275.876 101.5 277.336C98.9369 287.214 101.039 297.742 109.025 303.997C115.351 308.951 124.408 308.745 130.207 302.746C132.851 300.01 135.695 296.874 136.279 292.531C136.84 288.361 136.076 284.595 134.888 280.769C133.487 276.255 131.286 271.782 128.243 268.355C127.951 268.027 127.642 267.702 127.336 267.381L127.292 267.335C126.97 266.997 126.651 266.66 126.346 266.314C125.736 265.622 125.204 264.91 124.853 264.12C124.63 263.618 124.414 263.085 124.193 262.542C123.736 261.415 123.26 260.244 122.67 259.21ZM110.547 262.247C110.842 261.941 111.136 261.624 111.43 261.307L111.456 261.278C112.036 260.651 112.616 260.024 113.222 259.461C114.461 258.309 115.728 257.503 117.168 257.503C117.417 257.503 117.645 257.501 117.856 257.5C118.283 257.497 118.639 257.494 118.96 257.507C119.431 257.525 119.764 257.576 120.041 257.684C120.573 257.892 121.034 258.362 121.801 259.706C122.36 260.684 122.789 261.744 123.231 262.832C123.457 263.392 123.687 263.958 123.939 264.526C124.35 265.451 124.958 266.25 125.596 266.975C125.915 267.338 126.247 267.687 126.568 268.025L126.608 268.066C126.917 268.391 127.216 268.705 127.495 269.019C130.418 272.31 132.561 276.644 133.933 281.065C135.103 284.832 135.821 288.437 135.288 292.398C134.753 296.378 132.146 299.301 129.488 302.051C124.07 307.656 115.594 307.871 109.642 303.209C102.055 297.267 99.9741 287.198 102.468 277.587C102.856 276.093 103.156 274.572 103.45 273.067L103.47 272.965C103.759 271.49 104.045 270.032 104.407 268.606C104.787 267.107 105.714 266.091 106.874 265.275C107.678 264.709 108.547 264.266 109.415 263.824C109.835 263.61 110.254 263.396 110.666 263.169C110.907 263.036 110.995 262.731 110.862 262.49C110.792 262.364 110.676 262.28 110.547 262.247ZM322.693 261.524C322.432 261.435 322.147 261.574 322.058 261.835C321.968 262.096 322.107 262.381 322.369 262.47C322.563 262.537 322.751 262.618 322.934 262.711C320.52 263.451 318.989 264.88 317.716 266.541C317.144 267.288 316.618 268.089 316.093 268.892C316.023 268.997 315.954 269.102 315.885 269.207C315.285 270.12 314.671 271.033 313.955 271.909C310.372 276.291 307.961 281.627 307.214 287.312C307.175 287.612 307.134 287.915 307.093 288.22C306.757 290.733 306.4 293.395 306.478 295.981C306.566 298.892 307.205 301.753 309.069 304.259C313.126 309.713 318.469 312.136 324.961 312.478C328.047 312.641 331.803 311.772 334.974 310.04C338.141 308.309 340.807 305.67 341.566 302.238C342.219 299.282 342.914 295.807 342.093 292.68C341.069 288.779 339.729 285.08 337.921 281.491C336.463 278.596 335.072 275.985 333.263 273.293C332.536 272.211 331.7 271.264 330.872 270.351C330.777 270.246 330.681 270.141 330.586 270.037C329.851 269.228 329.133 268.438 328.478 267.568C328.156 267.141 327.836 266.67 327.498 266.173C327.446 266.096 327.393 266.018 327.34 265.94C326.946 265.362 326.529 264.759 326.077 264.19C325.178 263.058 324.098 262.006 322.693 261.524Z" stroke="black" stroke-width="3" stroke-linecap="round"/>
</g>
<g id="Vector">
<path fill-rule="evenodd" clip-rule="evenodd" d="M411.079 343.67C409.54 345.76 408.215 347.848 406.883 350.192C403.281 356.533 400.339 363.317 397.295 370.338C396.676 371.766 396.052 373.204 395.418 374.65C394.284 377.236 393.144 379.699 392.035 382.092C389.006 388.634 386.213 394.666 384.424 401.324C382.149 409.791 378.502 418.54 373.263 426.01C370.31 430.222 366.624 433.501 363.311 436.32C362.961 436.618 362.616 436.909 362.276 437.196C362.126 437.323 361.977 437.449 361.828 437.575L361.798 437.6C358.974 439.985 356.514 442.063 354.367 444.481C350.55 448.781 345.423 454.262 340.344 458.19C340.251 458.431 340.149 458.67 340.035 458.9C339.756 459.464 339.288 460.239 338.496 460.951C337.651 461.71 336.76 462.111 336.054 462.331C334.458 462.827 334.77 462.582 334.77 462.582C334.77 462.582 334.708 462.621 334.413 462.782C333.661 463.19 333.121 463.525 332.477 463.923C331.948 464.251 331.348 464.622 330.503 465.113C328.983 465.997 327.047 467.016 324.787 467.614C319.755 468.947 314.625 469.54 309.881 469.948C307.81 470.126 305.717 470.323 303.606 470.521C296.781 471.163 289.759 471.823 282.611 471.93C276.375 472.023 270.154 472.22 263.879 472.42L263.866 472.42C261.746 472.487 259.619 472.555 257.484 472.619C254.054 472.721 250.637 472.966 247.078 473.222C246.011 473.299 244.932 473.376 243.836 473.451C239.168 473.77 234.291 474.032 229.375 473.866C226.73 473.776 224.17 473.662 221.651 473.55C216.89 473.337 212.272 473.131 207.492 473.111C198.849 473.076 190.022 472.764 181.306 472.455C175.52 472.251 169.783 472.048 164.182 471.929C154.035 471.713 144.061 472.656 133.628 473.642C132.127 473.784 130.617 473.927 129.095 474.067C119.284 474.972 108.248 471.789 100.156 467.546C94.8058 464.741 89.5495 461.217 84.8854 458.01C80.8661 455.246 77.5599 452.35 74.4715 448.2C71.6427 444.399 69.0372 440.296 66.565 436.403C65.4301 434.615 64.3232 432.872 63.2358 431.223C59.4744 425.519 55.5494 418.217 53.727 411.057C52.1861 405.003 51.6032 399.038 51.2638 393.33C51.1334 391.137 51.0402 389.045 50.9491 386.998C50.7942 383.521 50.645 380.171 50.3285 376.661C49.6873 369.551 48.9434 362.455 47.9288 355.484C47.7332 354.141 47.2826 353.364 46.6545 352.688C45.883 351.858 44.7044 351.032 42.6843 349.875C39.36 347.97 34.5771 347.132 29.892 347.165C28.8992 347.172 28.1424 347.225 27.5592 347.32C27.1577 347.385 26.914 347.459 26.7812 347.509C26.7513 347.604 26.7133 347.755 26.6814 347.98C26.1726 351.554 26.7208 355.045 27.3987 359.361C27.601 360.649 27.8148 362.011 28.0156 363.47C28.4907 366.924 29.0631 370.371 29.6504 373.908C29.6924 374.16 29.7344 374.414 29.7765 374.667C30.4026 378.441 31.0372 382.314 31.5402 386.226C33.098 398.339 36.6859 410.942 41.0616 422.63C43.9482 430.34 46.8095 438.072 49.5219 445.917C49.8126 446.757 50.0868 447.569 50.3524 448.356C51.4398 451.575 52.3851 454.374 53.7412 457.015C54.9435 459.356 56.4141 461.427 58.142 463.86C58.6724 464.607 59.227 465.388 59.8055 466.222C62.402 469.963 65.0406 473.748 68.0829 476.908C71.1175 480.06 74.154 482.155 77.3337 482.963C80.8454 483.855 84.5133 484.929 88.069 485.971C90.1838 486.59 92.259 487.198 94.2381 487.749C99.7601 489.286 105.052 490.543 110.281 491.082C118.589 491.938 126.735 491.634 135.444 491.308C137.175 491.244 138.928 491.178 140.709 491.121C145.756 490.958 150.541 490.901 155.259 490.844C161.307 490.772 167.245 490.701 173.485 490.411C182.621 489.987 191.724 489.137 200.982 488.273C202.61 488.122 204.242 487.969 205.881 487.819C216.769 486.818 227.856 485.903 239.042 485.815C243.189 485.782 247.373 485.52 251.705 485.217C252.315 485.174 252.929 485.13 253.546 485.087C257.261 484.823 261.096 484.551 264.929 484.414C271.511 484.18 278.11 484.193 284.581 484.205C286.007 484.207 287.426 484.21 288.838 484.21C306.561 484.21 324.24 483.755 340.488 479.047C345.319 477.647 349.731 474.725 354.223 470.857C356.459 468.931 358.634 466.844 360.867 464.665C361.216 464.326 361.566 463.982 361.919 463.637C363.79 461.808 365.721 459.919 367.659 458.152C377.057 449.58 385.17 441.241 390.871 430.74C394.096 424.799 396.556 418.406 399.017 411.639C399.374 410.657 399.732 409.664 400.093 408.664C402.176 402.89 404.351 396.858 407.004 391.062C407.732 389.473 408.446 387.969 409.133 386.522C411.781 380.945 414.03 376.209 415.124 370.658C416.13 365.554 416.769 360.741 416.39 356.164C416.157 353.346 415.648 350.113 414.596 347.527C413.518 344.877 412.356 344.007 411.436 343.764C411.309 343.73 411.19 343.699 411.079 343.67ZM414.384 332.781L414.404 332.786C420.413 334.372 423.601 339.195 425.267 343.291C426.958 347.45 427.585 352.016 427.852 355.237C428.361 361.389 427.477 367.426 426.412 372.831C425.018 379.902 422.007 386.212 419.288 391.91C418.663 393.221 418.053 394.499 417.482 395.746C415.041 401.078 413.045 406.608 410.955 412.399C410.587 413.418 410.216 414.445 409.84 415.481C407.365 422.287 404.664 429.37 401.005 436.111C394.364 448.345 385.073 457.733 375.459 466.502C373.682 468.123 371.917 469.848 370.045 471.679C369.683 472.033 369.317 472.39 368.946 472.752C366.697 474.946 364.305 477.247 361.779 479.422C356.747 483.756 350.858 487.884 343.724 489.951C325.714 495.169 306.52 495.573 288.838 495.573C287.378 495.573 285.926 495.57 284.48 495.568C278.02 495.556 271.686 495.545 265.343 495.77C261.732 495.898 258.127 496.154 254.402 496.418C253.777 496.463 253.149 496.507 252.518 496.551C248.169 496.856 243.673 497.141 239.134 497.177C228.476 497.262 217.808 498.135 206.946 499.133C205.34 499.28 203.729 499.431 202.113 499.582C192.865 500.445 183.456 501.324 174.025 501.762C167.83 502.049 161.332 502.133 154.956 502.214C150.206 502.275 145.523 502.335 141.084 502.478C139.436 502.531 137.772 502.594 136.093 502.658C127.38 502.987 118.283 503.331 109.088 502.383C102.881 501.743 96.8471 500.281 91.1194 498.686C88.7977 498.04 86.5932 497.393 84.4388 496.761C81.0782 495.774 77.8398 494.824 74.4697 493.968C68.3696 492.418 63.5392 488.675 59.7507 484.74C56.0329 480.878 52.934 476.413 50.4474 472.83L50.3216 472.649C49.9101 472.056 49.466 471.432 49.0027 470.781C47.1969 468.244 45.0981 465.296 43.4861 462.157C41.7052 458.689 40.4304 454.898 39.3308 451.628C39.0933 450.922 38.864 450.24 38.6395 449.59C35.976 441.888 33.1563 434.265 30.276 426.572C25.7009 414.353 21.8323 400.88 20.1319 387.658C19.6583 383.976 19.0557 380.289 18.4279 376.505C18.3843 376.243 18.3406 375.979 18.2968 375.715C17.7147 372.211 17.1177 368.616 16.6203 365C16.4941 364.083 16.3334 363.084 16.1624 362.02C15.4349 357.497 14.5217 351.819 15.2934 346.397C15.8566 342.44 17.8638 339.322 21.2446 337.537C24.1166 336.021 27.3798 335.82 29.8087 335.802C35.535 335.761 42.6435 336.715 48.454 340.045C52.8945 342.59 58.1827 346.111 59.3117 353.867C59.4995 355.157 59.6781 356.45 59.8486 357.743C60.6366 363.725 61.2489 369.728 61.7832 375.653C62.1186 379.372 62.2921 383.223 62.4579 386.901C62.5474 388.888 62.6347 390.825 62.744 392.664C63.0682 398.115 63.5992 403.255 64.8797 408.285C66.2634 413.722 69.442 419.82 72.8713 425.02C74.1935 427.026 75.4166 428.954 76.6063 430.829C78.945 434.516 81.1549 438 83.7366 441.469C85.9088 444.388 88.2106 446.453 91.4546 448.683C96.1073 451.883 100.866 455.055 105.547 457.509C112.315 461.058 121.09 463.393 128.026 462.753C129.507 462.617 130.994 462.476 132.488 462.334C142.863 461.351 153.558 460.338 164.429 460.569C170.415 460.696 176.269 460.904 182.076 461.111L182.078 461.111C190.579 461.414 198.979 461.713 207.539 461.748C212.54 461.769 217.585 461.993 222.502 462.212C224.964 462.321 227.393 462.429 229.768 462.509C234.06 462.654 238.446 462.429 243.042 462.115C244.042 462.047 245.057 461.974 246.083 461.9L246.089 461.9C249.693 461.64 253.438 461.371 257.137 461.261C259.227 461.198 261.327 461.132 263.433 461.065C269.734 460.865 276.095 460.663 282.437 460.568C289.083 460.468 295.475 459.868 302.196 459.238C304.384 459.032 306.607 458.823 308.885 458.628C313.449 458.236 317.772 457.708 321.809 456.639C322.569 456.437 323.45 456.03 324.67 455.321C324.969 455.147 325.401 454.883 325.895 454.582C326.834 454.009 327.994 453.302 328.871 452.825C329.292 452.596 329.7 452.398 330.097 452.228L330.317 451.359L332.04 450.143C336.436 447.04 341.495 441.749 345.722 436.988C348.463 433.9 351.637 431.226 354.438 428.866C354.44 428.864 354.442 428.862 354.445 428.86C354.911 428.468 355.366 428.084 355.807 427.709C359.058 424.943 361.759 422.464 363.811 419.538C368.122 413.391 371.29 405.922 373.309 398.409C375.371 390.733 378.755 383.432 381.903 376.64L381.904 376.636C382.935 374.412 383.941 372.242 384.866 370.132C385.456 368.787 386.049 367.419 386.648 366.035C386.65 366.031 386.651 366.028 386.653 366.025C388.749 361.185 390.933 356.145 393.374 351.215C394.476 348.988 395.632 346.784 396.855 344.63C398.446 341.831 400.094 339.24 402.068 336.596C403.019 335.323 404.8 332.94 407.945 332.216C409.428 331.874 410.759 332.003 411.703 332.161C412.603 332.31 413.571 332.566 414.384 332.781Z" fill="black"/>
<path d="M406.883 350.192C408.215 347.848 409.54 345.76 411.079 343.67L411.436 343.764C412.356 344.007 413.518 344.877 414.596 347.527C415.648 350.113 416.157 353.346 416.39 356.164C416.769 360.741 416.13 365.554 415.124 370.658C414.03 376.209 411.781 380.945 409.133 386.522C408.446 387.969 407.732 389.473 407.004 391.062C404.351 396.858 402.176 402.89 400.093 408.664C399.732 409.664 399.374 410.657 399.017 411.639C396.556 418.406 394.096 424.799 390.871 430.74C385.17 441.241 377.057 449.58 367.659 458.152C365.721 459.919 363.79 461.808 361.919 463.637L360.867 464.665C358.634 466.844 356.459 468.931 354.223 470.857C349.731 474.725 345.319 477.647 340.488 479.047C324.24 483.755 306.561 484.21 288.838 484.21C287.426 484.21 286.007 484.207 284.581 484.205C278.11 484.193 271.511 484.18 264.929 484.414C261.096 484.551 257.261 484.823 253.546 485.087L251.705 485.217C247.373 485.52 243.189 485.782 239.042 485.815C227.856 485.903 216.769 486.818 205.881 487.819C204.242 487.969 202.61 488.122 200.982 488.273C191.724 489.137 182.621 489.987 173.485 490.411C167.245 490.701 161.307 490.772 155.259 490.844C150.541 490.901 145.756 490.958 140.709 491.121C138.928 491.178 137.175 491.244 135.444 491.308C126.735 491.634 118.589 491.938 110.281 491.082C105.052 490.543 99.7601 489.286 94.2381 487.749C92.259 487.198 90.1838 486.59 88.069 485.971C84.5133 484.929 80.8454 483.855 77.3337 482.963C74.154 482.155 71.1175 480.06 68.0829 476.908C65.0406 473.748 62.402 469.963 59.8055 466.222C59.227 465.388 58.6724 464.607 58.142 463.86C56.4141 461.427 54.9435 459.356 53.7412 457.015C52.3851 454.374 51.4398 451.575 50.3524 448.356C50.0868 447.569 49.8126 446.757 49.5219 445.917C46.8095 438.072 43.9482 430.34 41.0616 422.63C36.6859 410.942 33.098 398.339 31.5402 386.226C31.0372 382.314 30.4026 378.441 29.7765 374.667L29.6504 373.908C29.0631 370.371 28.4907 366.924 28.0156 363.47C27.8148 362.011 27.601 360.649 27.3987 359.361C26.7208 355.045 26.1726 351.554 26.6814 347.98C26.7133 347.755 26.7513 347.604 26.7812 347.509C26.914 347.459 27.1577 347.385 27.5592 347.32C28.1424 347.225 28.8992 347.172 29.892 347.165C34.5771 347.132 39.36 347.97 42.6843 349.875C44.7044 351.032 45.883 351.858 46.6545 352.688C47.2826 353.364 47.7332 354.141 47.9288 355.484C48.9434 362.455 49.6873 369.551 50.3285 376.661C50.645 380.171 50.7942 383.521 50.9491 386.998C51.0402 389.045 51.1334 391.137 51.2638 393.33C51.6032 399.038 52.1861 405.003 53.727 411.057C55.5494 418.217 59.4744 425.519 63.2358 431.223C64.3232 432.872 65.4301 434.615 66.565 436.403C69.0372 440.296 71.6427 444.399 74.4715 448.2C77.5599 452.35 80.8661 455.246 84.8854 458.01C89.5495 461.217 94.8058 464.741 100.156 467.546C108.248 471.789 119.284 474.972 129.095 474.067C130.617 473.927 132.127 473.784 133.628 473.642C144.061 472.656 154.035 471.713 164.182 471.929C169.783 472.048 175.52 472.251 181.306 472.455C190.022 472.764 198.849 473.076 207.492 473.111C212.272 473.131 216.89 473.337 221.651 473.55C224.17 473.662 226.73 473.776 229.375 473.866C234.291 474.032 239.168 473.77 243.836 473.451C244.932 473.376 246.011 473.299 247.078 473.222C250.637 472.966 254.054 472.721 257.484 472.619C259.619 472.555 261.746 472.487 263.866 472.42L263.879 472.42C270.154 472.22 276.375 472.023 282.611 471.93C289.759 471.823 296.781 471.163 303.606 470.521C305.717 470.323 307.81 470.126 309.881 469.948C314.625 469.54 319.755 468.947 324.787 467.614C327.047 467.016 328.983 465.997 330.503 465.113C331.348 464.622 331.948 464.251 332.477 463.923C333.121 463.525 333.661 463.19 334.413 462.782C334.708 462.621 334.77 462.582 334.77 462.582C334.77 462.582 334.458 462.827 336.054 462.331C336.76 462.111 337.651 461.71 338.496 460.951C339.288 460.239 339.756 459.464 340.035 458.9C340.149 458.67 340.251 458.431 340.344 458.19C345.423 454.262 350.55 448.781 354.367 444.481C356.514 442.063 358.974 439.985 361.798 437.6L361.828 437.575L362.276 437.196L363.311 436.32C366.624 433.501 370.31 430.222 373.263 426.01C378.502 418.54 382.149 409.791 384.424 401.324C386.213 394.666 389.006 388.634 392.035 382.092C393.144 379.699 394.284 377.236 395.418 374.65C396.052 373.204 396.676 371.766 397.295 370.338C400.339 363.317 403.281 356.533 406.883 350.192Z" fill="#BCE8EE"/>
<path fill-rule="evenodd" clip-rule="evenodd" d="M390.957 348.618C392.527 348.895 393.876 349.218 394.697 349.571C394.951 349.68 395.068 349.974 394.959 350.228C394.85 350.482 394.556 350.599 394.303 350.49C393.597 350.187 392.347 349.878 390.783 349.603C389.233 349.329 387.414 349.094 385.594 348.925C383.775 348.757 381.963 348.655 380.427 348.648C378.873 348.64 377.655 348.729 376.992 348.916C371.217 350.548 365.792 352.871 360.676 355.83C358.177 357.275 355.826 358.897 353.458 360.531L353.263 360.666C350.834 362.342 348.383 364.026 345.762 365.508C344.906 365.992 344.095 366.512 343.273 367.038C342.834 367.319 342.392 367.603 341.937 367.884C340.649 368.681 339.301 369.437 337.787 369.978C334.799 371.045 331.522 371.716 328.378 372.117C320.959 373.062 313.327 370.827 306.453 368.814L306.07 368.702C301.995 367.51 298.243 365.715 294.608 363.767C293.149 362.984 291.718 362.182 290.293 361.384C288.145 360.18 286.01 358.984 283.814 357.874C283.417 357.673 283.022 357.472 282.628 357.271C279.733 355.793 276.894 354.344 273.746 353.518C269.677 352.451 265.335 351.81 261.048 351.177C259.605 350.964 258.168 350.751 256.75 350.524C251.64 349.705 246.142 349.064 240.998 349.39C234.648 349.792 228.033 352.421 222.364 355.043C218.846 356.669 215.531 358.658 212.204 360.654C210.95 361.406 209.694 362.16 208.425 362.895C204.321 365.273 200.285 366.939 195.901 368.687C192.281 370.13 188.498 371.362 184.633 372.192C181.344 372.899 178.347 372.255 175.257 371.591C175.098 371.556 174.938 371.522 174.778 371.488C170.309 370.533 165.951 369.35 161.617 367.995C158.165 366.916 155.302 365.399 152.303 363.81C151.66 363.47 151.011 363.126 150.348 362.782C147.938 361.532 145.425 360.389 142.91 359.245C141.631 358.664 140.352 358.082 139.086 357.486C134.945 355.536 130.475 353.878 125.961 352.881C116.455 350.78 106.629 350.513 96.8289 350.302C87.5986 350.104 78.0586 350.35 69.1902 352.689C62.0906 354.562 55.558 358.811 50.3371 363.578C50.1332 363.764 49.817 363.749 49.6308 363.545C49.4446 363.341 49.4589 363.025 49.6629 362.839C54.9606 358.002 61.632 353.649 68.9351 351.722C77.9452 349.346 87.6015 349.104 96.8503 349.303C106.639 349.513 116.56 349.779 126.177 351.904C130.78 352.921 135.321 354.608 139.512 356.581C140.752 357.165 142.018 357.741 143.291 358.32C145.821 359.471 148.377 360.633 150.808 361.894C151.487 362.246 152.147 362.596 152.796 362.939C155.791 364.525 158.559 365.992 161.915 367.041C166.225 368.388 170.554 369.563 174.987 370.51C175.129 370.54 175.269 370.57 175.409 370.6C178.547 371.274 181.35 371.875 184.423 371.215C188.221 370.399 191.95 369.185 195.53 367.758C199.913 366.011 203.889 364.368 207.924 362.03C209.164 361.311 210.402 360.568 211.646 359.822C214.989 357.816 218.374 355.786 221.944 354.135C227.625 351.508 234.385 348.807 240.935 348.392C246.193 348.058 251.779 348.715 256.909 349.537C258.299 349.759 259.718 349.969 261.15 350.181C265.451 350.816 269.872 351.469 273.999 352.551C277.26 353.406 280.201 354.908 283.087 356.382C283.48 356.583 283.873 356.783 284.265 356.981C286.471 358.096 288.648 359.316 290.817 360.531C292.24 361.328 293.66 362.123 295.081 362.885C298.692 364.822 302.373 366.579 306.351 367.743L306.645 367.828C313.583 369.86 321.042 372.043 328.251 371.125C331.348 370.73 334.551 370.072 337.451 369.036C338.866 368.531 340.144 367.817 341.411 367.033C341.837 366.77 342.267 366.495 342.7 366.217C343.538 365.681 344.392 365.134 345.27 364.638C347.846 363.18 350.262 361.522 352.695 359.843L352.902 359.7C355.261 358.072 357.641 356.429 360.175 354.964C365.361 351.965 370.862 349.609 376.72 347.954C377.533 347.724 378.879 347.64 380.432 347.648C382.004 347.656 383.846 347.759 385.687 347.93C387.528 348.1 389.375 348.339 390.957 348.618Z" fill="black"/>
<path fill-rule="evenodd" clip-rule="evenodd" d="M376.448 346.991C377.411 346.719 378.884 346.64 380.437 346.648C382.045 346.656 383.917 346.761 385.779 346.934C387.641 347.107 389.516 347.348 391.131 347.633C392.706 347.911 394.156 348.25 395.092 348.652C395.853 348.979 396.205 349.861 395.878 350.623C395.551 351.384 394.669 351.736 393.908 351.409C393.763 351.346 393.584 351.282 393.374 351.215C392.728 351.012 391.785 350.795 390.61 350.587C389.091 350.32 387.3 350.088 385.502 349.921C383.704 349.755 381.922 349.655 380.422 349.648C378.866 349.64 377.777 349.733 377.264 349.878C371.571 351.487 366.223 353.777 361.177 356.695C358.718 358.117 356.4 359.716 354.026 361.354L353.831 361.489C351.406 363.163 348.92 364.871 346.255 366.379C345.426 366.847 344.638 367.352 343.812 367.88L343.811 367.881C343.373 368.161 342.925 368.449 342.464 368.734C341.154 369.545 339.736 370.344 338.123 370.92C335.048 372.018 331.695 372.702 328.504 373.109C320.878 374.08 313.078 371.796 306.268 369.802L305.789 369.662C301.616 368.441 297.794 366.609 294.136 364.648C292.669 363.862 291.232 363.056 289.809 362.259L289.804 362.256C287.653 361.051 285.536 359.865 283.362 358.766C282.964 358.565 282.567 358.362 282.174 358.161C279.263 356.676 276.519 355.28 273.492 354.486C269.486 353.435 265.2 352.801 260.902 352.166L260.898 352.165C259.458 351.953 258.016 351.74 256.592 351.511C251.5 350.695 246.091 350.069 241.062 350.388C234.91 350.778 228.44 353.334 222.783 355.95C219.322 357.551 216.053 359.511 212.718 361.511L212.716 361.513L212.713 361.515C211.462 362.265 210.201 363.022 208.926 363.76C204.753 366.179 200.657 367.867 196.271 369.616C192.612 371.075 188.774 372.325 184.843 373.17C181.344 373.922 178.166 373.239 175.126 372.585L175.047 372.568C174.888 372.534 174.729 372.5 174.569 372.466C170.065 371.503 165.677 370.312 161.318 368.95C157.778 367.843 154.847 366.29 151.866 364.71L151.835 364.694C151.191 364.353 150.546 364.011 149.887 363.67C147.505 362.434 145.015 361.301 142.496 360.156L142.493 360.154L142.492 360.154C141.216 359.573 139.932 358.989 138.66 358.391C134.569 356.465 130.17 354.835 125.745 353.857C116.349 351.781 106.62 351.513 96.8074 351.302C87.5956 351.104 78.1721 351.354 69.4452 353.656C66.0996 354.539 62.8723 355.968 59.8486 357.743C56.6396 359.626 53.6598 361.898 51.0114 364.316C50.3996 364.875 49.4508 364.831 48.8923 364.22C48.3337 363.608 48.3768 362.659 48.9886 362.101C54.3632 357.193 61.1735 352.736 68.6801 350.756C77.8316 348.342 87.6044 348.104 96.8718 348.303C106.649 348.513 116.666 348.778 126.393 350.928C131.084 351.965 135.697 353.68 139.938 355.677C141.171 356.257 142.431 356.83 143.705 357.41L143.717 357.415C146.239 358.562 148.815 359.734 151.269 361.006C151.951 361.361 152.615 361.712 153.263 362.055L153.264 362.056C156.267 363.646 158.959 365.069 162.214 366.086C166.5 367.426 170.798 368.592 175.196 369.532L175.619 369.623C178.788 370.302 181.382 370.845 184.213 370.237C187.945 369.435 191.62 368.241 195.16 366.829C199.541 365.083 203.456 363.463 207.422 361.165C208.655 360.45 209.886 359.711 211.132 358.964L211.154 358.951C214.482 356.954 217.905 354.901 221.524 353.227C227.218 350.594 234.123 347.822 240.872 347.394C246.243 347.053 251.919 347.724 257.067 348.549C258.45 348.771 259.863 348.98 261.296 349.191L261.325 349.196C265.607 349.828 270.073 350.488 274.253 351.584C277.619 352.467 280.641 354.01 283.5 355.47L283.542 355.491L283.545 355.493C283.938 355.694 284.327 355.892 284.716 356.089C286.941 357.213 289.133 358.442 291.296 359.653L291.306 359.659C292.73 360.456 294.142 361.247 295.554 362.004C299.141 363.928 302.752 365.647 306.632 366.783L306.925 366.869C313.908 368.913 321.16 371.02 328.125 370.133C331.175 369.744 334.302 369.099 337.114 368.095C338.431 367.624 339.639 366.954 340.885 366.183C341.303 365.924 341.726 365.654 342.16 365.376L342.161 365.375L342.173 365.368C343.004 364.836 343.876 364.277 344.778 363.767C347.309 362.335 349.69 360.702 352.127 359.02L352.334 358.877L352.35 358.867C354.699 357.245 357.106 355.584 359.675 354.098C364.93 351.059 370.508 348.67 376.448 346.991Z" fill="black"/>
<path d="M59.8486 357.743C60.6366 363.725 61.2489 369.728 61.7832 375.653C62.1186 379.372 62.2921 383.223 62.4579 386.901C62.5474 388.888 62.6347 390.825 62.744 392.664C63.0682 398.115 63.5992 403.255 64.8797 408.285C66.2634 413.722 69.442 419.82 72.8713 425.02C74.1935 427.026 75.4166 428.954 76.6063 430.829C78.945 434.516 81.1549 438 83.7366 441.469C85.9088 444.388 88.2106 446.453 91.4546 448.683C96.1073 451.883 100.866 455.055 105.547 457.509C112.315 461.058 121.09 463.393 128.026 462.753C129.507 462.617 130.994 462.476 132.488 462.334C142.863 461.351 153.558 460.338 164.429 460.569C170.415 460.696 176.269 460.904 182.076 461.111L182.078 461.111C190.579 461.414 198.979 461.713 207.539 461.748C212.54 461.769 217.585 461.993 222.502 462.212C224.964 462.321 227.393 462.429 229.768 462.509C234.06 462.654 238.446 462.429 243.042 462.115C244.042 462.047 245.057 461.974 246.083 461.9L246.089 461.9C249.693 461.64 253.438 461.371 257.137 461.261C259.227 461.198 261.327 461.132 263.433 461.065C269.734 460.865 276.095 460.663 282.437 460.568C289.083 460.468 295.475 459.868 302.196 459.238C304.384 459.032 306.607 458.823 308.885 458.628C313.449 458.236 317.772 457.708 321.809 456.639C322.569 456.437 323.45 456.03 324.67 455.321C324.969 455.147 325.401 454.883 325.895 454.582C326.834 454.009 327.994 453.302 328.871 452.825C329.292 452.596 329.7 452.398 330.097 452.228L330.317 451.359L332.04 450.143C336.436 447.04 341.495 441.749 345.722 436.988C348.463 433.9 351.637 431.226 354.438 428.866L354.445 428.86C354.911 428.468 355.366 428.084 355.807 427.709C359.058 424.943 361.759 422.464 363.811 419.538C368.122 413.391 371.29 405.922 373.309 398.409C375.371 390.733 378.755 383.432 381.903 376.64L381.904 376.636C382.935 374.412 383.941 372.242 384.866 370.132C385.456 368.787 386.049 367.419 386.648 366.035L386.653 366.025C388.749 361.185 390.933 356.145 393.374 351.215C392.728 351.012 391.785 350.795 390.61 350.587C389.091 350.32 387.3 350.088 385.502 349.921C383.704 349.755 381.922 349.655 380.422 349.648C378.866 349.64 377.777 349.733 377.264 349.878C371.571 351.487 366.223 353.777 361.177 356.695C358.718 358.117 356.4 359.716 354.026 361.354L353.831 361.489C351.406 363.163 348.92 364.871 346.255 366.379C345.426 366.847 344.638 367.352 343.812 367.88L343.811 367.881C343.373 368.161 342.925 368.449 342.464 368.734C341.154 369.545 339.736 370.344 338.123 370.92C335.048 372.018 331.695 372.702 328.504 373.109C320.878 374.08 313.078 371.796 306.268 369.802L305.789 369.662C301.616 368.441 297.794 366.609 294.136 364.648C292.669 363.862 291.232 363.056 289.809 362.259L289.804 362.256C287.653 361.051 285.536 359.865 283.362 358.766C282.964 358.565 282.567 358.362 282.174 358.161C279.263 356.676 276.519 355.28 273.492 354.486C269.486 353.435 265.2 352.801 260.902 352.166L260.898 352.165C259.458 351.953 258.016 351.74 256.592 351.511C251.5 350.695 246.091 350.069 241.062 350.388C234.91 350.778 228.44 353.334 222.783 355.95C219.322 357.551 216.053 359.511 212.718 361.511L212.716 361.513L212.713 361.515C211.462 362.265 210.201 363.022 208.926 363.76C204.753 366.179 200.657 367.867 196.271 369.616C192.612 371.075 188.774 372.325 184.843 373.17C181.344 373.922 178.166 373.239 175.126 372.585L175.047 372.568C174.888 372.534 174.729 372.5 174.569 372.466C170.065 371.503 165.677 370.312 161.318 368.95C157.778 367.843 154.847 366.29 151.866 364.71L151.835 364.694C151.191 364.353 150.546 364.011 149.887 363.67C147.505 362.434 145.015 361.301 142.496 360.156L142.493 360.154L142.492 360.154C141.216 359.573 139.932 358.989 138.66 358.391C134.569 356.465 130.17 354.835 125.745 353.857C116.349 351.781 106.62 351.513 96.8074 351.302C87.5956 351.104 78.1721 351.354 69.4452 353.656C66.0996 354.539 62.8723 355.968 59.8486 357.743Z" fill="#93E9DA"/>
</g>
</g>
</g>
</svg>
