<svg width="449" height="438" viewBox="0 0 560 438" fill="none" xmlns="http://www.w3.org/2000/svg">
<g id="wind">
<g id="Vector (Stroke)">
<path fill-rule="evenodd" clip-rule="evenodd" d="M225.684 11.3092C220.456 10.4979 216.017 9.80908 211.426 10.202C207.834 10.5095 204.68 12.5815 200.723 15.8604C199.62 16.7736 198.541 17.6514 197.483 18.5127C194.915 20.6018 192.467 22.5934 190.095 24.7575C187.899 26.7602 185.547 28.5761 183.385 30.2454C183.13 30.4426 182.877 30.6378 182.627 30.831C180.193 32.715 178.006 34.4544 176.071 36.376C175.009 37.4302 174.016 38.5643 172.884 39.8569C172.806 39.9459 172.727 40.0356 172.648 40.1261C171.462 41.4795 170.121 42.9966 168.613 44.4254C167.893 45.1071 167.19 45.7657 166.499 46.4129C164.988 47.8286 163.534 49.1902 162.089 50.6227C157.249 55.4177 153.888 61.752 152.152 68.5809C150.696 74.3072 150.068 80.1948 151.108 85.3848C151.339 86.5341 151.548 87.4306 151.835 88.1693C152.119 88.8976 152.352 89.1302 152.412 89.1803C154.527 90.9291 157.544 92.5166 159.827 92.9838C161.543 93.335 164.254 92.0981 166.013 89.415C167.922 86.5006 169.23 83.1687 170.433 79.3788C170.83 78.1285 171.239 76.7398 171.666 75.292C172.436 72.678 173.262 69.8713 174.177 67.3382C177.556 57.9823 182.21 49.7658 187.435 41.7173C193.146 32.9213 203.271 29.0371 211.703 27.4154C216.167 26.557 220.239 27.1013 223.731 27.5681L224.122 27.6203C225.921 27.8603 227.734 28.0658 229.603 28.2776L229.625 28.2801C231.471 28.4893 233.375 28.7049 235.281 28.9592C239.09 29.4673 242.862 31.069 245.752 32.2961C246.38 32.5629 246.967 32.812 247.503 33.0283C247.996 33.227 248.505 33.4295 249.026 33.637C252.133 34.8732 255.692 36.289 258.934 38.1508C259.654 38.5638 260.533 39.0415 261.492 39.5624C263.403 40.6007 265.63 41.8108 267.536 43.0227C270.559 44.9448 273.854 47.4851 276.086 51.0349C283.608 63.0001 283.329 76.8226 283.089 88.6894C283.059 90.1778 283.03 91.6356 283.016 93.055C282.929 102.355 280.114 111.076 275.504 118.851C275.118 119.501 274.73 120.203 274.286 121.004L274.193 121.173C273.725 122.018 273.203 122.956 272.642 123.889C271.541 125.718 270.115 127.825 268.222 129.548C266.927 130.727 265.236 132.008 263.839 133.065C263.16 133.58 262.55 134.041 262.089 134.413C258.354 137.426 254.624 139.354 249.66 140.221C242.177 141.529 234.671 142.604 227.149 143.492C220.56 144.27 213.919 143.694 207.872 143.171C206.284 143.033 204.736 142.899 203.241 142.794C197.66 142.402 192.275 140.956 187.332 139.157C185.9 138.636 184.458 138.047 183.131 137.505C182.633 137.302 182.152 137.105 181.693 136.922C179.929 136.214 178.313 135.613 176.667 135.169C174.496 134.585 172.301 133.867 170.255 133.198C169.674 133.008 169.105 132.822 168.552 132.644C165.957 131.81 163.574 131.103 161.236 130.674C154.596 129.455 148.144 127.707 141.887 125.931C140.747 125.608 139.616 125.284 138.491 124.962C133.378 123.499 128.397 122.074 123.343 120.882C114.365 118.765 105.217 117.296 95.9149 115.943C89.1517 114.958 82.9644 114.297 76.9199 115.233C71.9213 116.007 66.9425 116.856 63.3266 118.64C62.0507 119.27 60.7732 119.968 59.4103 120.724C59.2321 120.823 59.052 120.923 58.8701 121.024C57.692 121.679 56.4414 122.373 55.1775 123.029C53.2469 124.031 51.1259 124.677 49.5266 125.164C49.2873 125.236 49.0597 125.306 48.8461 125.372C46.9791 125.953 45.7873 126.411 44.8706 127.047C44.3896 127.382 43.8866 127.819 43.1653 128.477C43.0956 128.541 43.0229 128.607 42.9474 128.676C42.3234 129.248 41.5108 129.992 40.6375 130.66C40.3457 130.883 40.0711 131.092 39.8119 131.288C38.3733 132.38 37.4112 133.11 36.63 134.022C36.0943 134.647 35.5662 135.255 35.048 135.852C33.1767 138.009 31.4339 140.017 29.9233 142.118C28.7642 143.731 27.1772 145.231 26.082 146.266C25.7668 146.564 25.4924 146.823 25.2806 147.036C24.8569 147.461 24.4508 147.982 23.8608 148.783C23.8062 148.857 23.7492 148.935 23.6898 149.015C23.3734 149.447 22.9914 149.967 22.5594 150.508C22.3161 151.051 21.9721 151.56 21.5274 152.007C21.1675 152.368 20.9029 152.647 20.6918 152.896C20.4845 153.142 20.3761 153.304 20.3199 153.403C20.3035 153.432 20.2858 153.468 20.2858 153.468L20.2872 153.484C20.5201 155.703 21.8667 157.982 23.9959 159.733C25.4323 160.915 27.8431 161.307 31.5931 160.213C35.2201 159.154 38.9518 156.997 41.5628 155.069C46.0658 151.744 50.3213 148.275 54.5699 144.565C54.8582 144.313 55.157 144.05 55.4654 143.779C57.9805 141.565 61.1424 138.781 64.6153 136.858C67.0463 135.511 69.8452 134.615 72.0122 133.92C72.5365 133.752 73.0238 133.596 73.4599 133.449C81.2176 130.82 88.0598 131.473 94.8932 132.263C103.606 133.269 111.901 135.131 120.202 137.571C120.635 137.698 121.069 137.826 121.505 137.954C126.633 139.458 131.988 141.029 137.188 142.927C140.555 144.155 143.936 145.815 147.012 147.326C148.335 147.975 149.601 148.597 150.785 149.145C152.841 150.096 154.993 150.848 157.423 151.697C157.569 151.748 157.715 151.799 157.862 151.85C160.386 152.733 163.196 153.732 165.943 155.098C169.568 156.901 173.154 158.664 176.785 160.404C178.511 161.231 180.051 162.024 181.501 162.771C184.705 164.422 187.464 165.843 190.794 166.885C197.269 168.91 205.013 169.169 211.549 167.484C218.975 165.571 226.576 164.331 233.942 163.13C237.115 162.613 240.245 162.103 243.298 161.549C246.626 160.945 250.086 160.606 253.337 160.287L253.423 160.279C256.775 159.95 259.927 159.639 262.955 159.102C268.984 158.032 273.842 156.17 277.476 152.215C283.191 145.995 287.535 137.881 291.103 129.6C294 122.875 295.32 115.271 296.71 107.273C296.78 106.871 296.85 106.467 296.92 106.063C297.318 103.779 297.887 101.577 298.425 99.5584C298.503 99.268 298.579 98.9821 298.655 98.7C299.121 96.9613 299.548 95.3679 299.893 93.7554C300.882 89.1344 301.695 84.4218 302.29 79.7487C303.084 73.5084 302.764 67.3608 300.748 61.9328C296.804 51.3158 287.583 42.9125 277.798 34.8477C276.257 33.5778 274.833 32.3414 273.471 31.1595C269.455 27.6731 265.984 24.6601 261.677 22.6558C260.493 22.1049 259.178 21.6447 257.654 21.1581C257.27 21.0356 256.86 20.9075 256.433 20.7744C255.275 20.4128 253.995 20.0133 252.796 19.5842C251.92 19.2711 251.101 18.9682 250.313 18.6772C248.427 17.9802 246.725 17.3515 244.886 16.8135C242.656 16.1609 240.402 15.3795 238.304 14.6519C237.387 14.3341 236.5 14.0265 235.657 13.7444C232.753 12.7723 230.046 11.9795 227.254 11.5516C226.722 11.4702 226.199 11.3891 225.684 11.3092ZM13.5074 145.811C11.9111 147.551 9.85133 150.412 10.2844 154.54C10.8565 159.993 13.9546 164.523 17.6182 167.537C22.8633 171.852 29.4093 171.36 34.4015 169.903C39.5166 168.411 44.3124 165.569 47.5241 163.197C52.2851 159.682 56.7555 156.035 61.1725 152.178C61.4742 151.915 61.771 151.654 62.0637 151.398C64.7126 149.076 67.0199 147.053 69.4757 145.693C70.9627 144.87 72.5172 144.367 74.5348 143.715C75.1949 143.501 75.9046 143.272 76.6777 143.01C82.1176 141.167 86.9592 141.505 93.7431 142.288C101.765 143.215 109.489 144.938 117.375 147.256C117.793 147.379 118.211 147.502 118.628 147.624C123.816 149.147 128.869 150.63 133.75 152.411C136.613 153.455 139.165 154.712 141.974 156.094C143.415 156.803 144.923 157.546 146.575 158.31C149.093 159.474 151.683 160.378 154.013 161.192C154.194 161.255 154.373 161.317 154.551 161.38C157.104 162.272 159.361 163.088 161.476 164.139C165.126 165.955 168.759 167.742 172.451 169.511C173.615 170.068 174.843 170.7 176.128 171.362C179.648 173.173 183.596 175.204 187.8 176.52C195.997 179.083 205.645 179.425 214.051 177.259C221.025 175.462 227.886 174.345 235.03 173.181C238.31 172.647 241.65 172.103 245.088 171.479C247.971 170.956 251.045 170.651 254.401 170.323L254.509 170.312C257.76 169.993 261.266 169.65 264.707 169.039C271.693 167.799 279.084 165.354 284.871 159.055C291.717 151.604 296.598 142.279 300.335 133.604C303.723 125.74 305.23 117.03 306.563 109.326C306.652 108.813 306.74 108.305 306.828 107.801C307.143 105.995 307.607 104.169 308.141 102.167C308.212 101.9 308.285 101.629 308.359 101.354C308.821 99.6305 309.323 97.7605 309.727 95.8745C310.772 90.9901 311.634 85.997 312.267 81.0275C313.198 73.7131 312.924 65.8143 310.173 58.4081C305.164 44.9262 293.807 34.9819 284.182 27.0494C283.112 26.1674 281.987 25.1876 280.807 24.1593C276.575 20.4723 271.628 16.1622 265.908 13.5006C264.131 12.6738 262.326 12.0594 260.704 11.5414C260.182 11.3747 259.69 11.2214 259.22 11.0745C258.14 10.7374 257.167 10.434 256.173 10.0784C255.514 9.84243 254.82 9.58626 254.102 9.32099C252.096 8.57986 249.898 7.76769 247.703 7.12531C245.71 6.54228 243.855 5.89831 241.88 5.21322C240.906 4.87514 239.903 4.52705 238.84 4.17133C235.757 3.139 232.412 2.13308 228.772 1.5754C228.231 1.49265 227.684 1.40679 227.128 1.31978C222.084 0.529324 216.437 -0.355392 210.571 0.146733C203.603 0.743151 198.33 4.75486 194.319 8.07842C193.368 8.86622 192.378 9.67116 191.369 10.4924C188.716 12.6509 185.925 14.922 183.329 17.2902C181.457 18.9972 179.442 20.5547 177.234 22.2603C176.986 22.4518 176.736 22.6452 176.483 22.8408C174.051 24.7236 171.418 26.798 168.996 29.2031C167.673 30.5163 166.457 31.906 165.372 33.1447C165.279 33.2516 165.186 33.3573 165.095 33.4618C163.896 34.8292 162.836 36.0188 161.708 37.0869C161.075 37.6863 160.421 38.2997 159.754 38.9239C158.193 40.3865 156.57 41.9074 155.021 43.4419C148.704 49.7016 144.528 57.7395 142.406 66.0864C140.758 72.5691 139.793 80.1183 141.248 87.3746C141.483 88.5506 141.831 90.2074 142.465 91.8377C143.103 93.4784 144.156 95.4305 146.016 96.9684C149.054 99.4806 153.534 101.996 157.817 102.872C165.179 104.379 171.467 99.4607 174.417 94.9596C177.078 90.898 178.717 86.5368 180.017 82.4417C180.561 80.7273 181.023 79.1505 181.466 77.6377C182.154 75.2881 182.797 73.093 183.633 70.7768C186.645 62.439 190.848 54.9504 195.863 47.2259C199.346 41.8615 206.145 38.7599 213.597 37.3269C216.331 36.8011 218.909 37.1056 222.673 37.6077L222.796 37.6241C224.702 37.8782 226.604 38.0938 228.449 38.3028L228.475 38.3057C230.344 38.5176 232.157 38.7231 233.955 38.963C236.291 39.2746 238.474 40.1909 241.258 41.3595C242.036 41.6865 242.862 42.0331 243.751 42.3919C244.322 42.6219 244.881 42.8452 245.431 43.0645C248.567 44.3163 251.37 45.435 253.938 46.9096C255.105 47.5796 256.189 48.1655 257.237 48.7319C258.905 49.6332 260.482 50.4849 262.153 51.5472C264.713 53.1748 266.527 54.7466 267.579 56.4189C273.387 65.6585 273.217 76.2594 273.02 88.5135C272.997 89.972 272.973 91.4539 272.959 92.9598C272.89 100.226 270.697 107.219 266.86 113.691C266.394 114.476 265.935 115.306 265.51 116.074L265.4 116.272C264.929 117.123 264.488 117.914 264.032 118.672C263.098 120.224 262.272 121.338 261.464 122.074C260.43 123.015 259.514 123.7 258.436 124.506C257.669 125.08 256.819 125.715 255.787 126.548C253.15 128.675 250.956 129.751 247.934 130.279C240.653 131.552 233.332 132.6 225.974 133.469C220.503 134.115 215.201 133.662 209.311 133.158C207.579 133.01 205.797 132.857 203.944 132.727C199.598 132.422 195.169 131.274 190.762 129.67C189.523 129.219 188.361 128.744 187.104 128.231C186.566 128.012 186.011 127.785 185.425 127.55C183.554 126.8 181.501 126.023 179.275 125.423C177.385 124.914 175.532 124.308 173.534 123.655C172.913 123.453 172.278 123.245 171.623 123.035C168.957 122.177 166.058 121.3 163.046 120.747C156.906 119.62 150.842 117.985 144.625 116.221C143.533 115.911 142.434 115.596 141.329 115.28C136.206 113.813 130.95 112.309 125.644 111.058C116.225 108.837 106.724 107.318 97.3586 105.955C90.5439 104.964 83.0465 104.073 75.3862 105.259L75.3391 105.266C70.6738 105.989 64.1177 107.003 58.8878 109.584C57.3765 110.33 55.9149 111.132 54.5451 111.892C54.3568 111.996 54.1705 112.099 53.986 112.202C52.7988 112.861 51.6844 113.48 50.5566 114.065C49.5032 114.612 48.3498 114.967 46.6765 115.483C46.42 115.562 46.1514 115.645 45.8691 115.732C43.9705 116.323 41.4499 117.149 39.1454 118.75C38.0566 119.506 37.1138 120.358 36.3995 121.01C36.3294 121.074 36.2613 121.136 36.1952 121.196C35.5171 121.815 35.0387 122.252 34.5378 122.636C34.3461 122.782 34.1362 122.94 33.9122 123.108C32.5119 124.161 30.5563 125.63 29.0041 127.441C28.5651 127.953 28.1026 128.486 27.6254 129.035C25.7171 131.232 23.5746 133.699 21.7659 136.215C21.2048 136.995 20.6705 137.499 19.8421 138.28C19.3894 138.707 18.849 139.217 18.1684 139.9C17.1604 140.911 16.3644 141.981 15.7729 142.783C15.7226 142.852 15.6738 142.918 15.6264 142.982C15.0568 143.756 14.6772 144.272 14.2502 144.743C13.9509 145.073 13.7035 145.433 13.5074 145.811ZM387.391 112.433C382.544 110.906 379.045 110.925 373.611 111.813C361.727 113.754 350.38 120.569 341.903 129.606C338.964 132.739 336.43 136.039 334.082 139.696C332.68 141.879 331.142 144.019 329.698 146.028L329.691 146.038C329.227 146.683 328.773 147.315 328.336 147.93C326.478 150.548 324.821 153.02 323.477 155.624C321.46 159.532 320.734 163.847 321.327 168.269C321.548 169.919 322.07 172.043 322.836 174.089C323.623 176.19 324.526 177.83 325.328 178.769C326.45 180.082 328.139 181.518 329.616 182.439C329.752 182.333 329.893 182.22 330.04 182.1L330.579 181.66C330.741 181.528 330.973 181.341 331.206 181.173C333.566 179.461 335.384 176.39 336.915 172.536C337.482 171.108 338.045 169.646 338.616 168.163C341.25 161.324 344.065 154.015 348.311 147.305C353.413 139.242 361.893 131.952 371.457 129.015C378.344 126.899 385.506 127.399 391.728 128.51C397.675 129.573 403.835 131.99 408.299 137.563C412.385 142.666 415.134 149.221 414.125 156.525C414.003 157.409 413.881 158.296 413.76 159.185C412.885 165.568 411.996 172.061 410.684 178.57C410.212 180.913 409.956 183.226 409.674 185.786C409.576 186.672 409.475 187.587 409.36 188.542C408.935 192.093 408.338 196.009 406.919 199.895C404.92 205.372 401.133 210.487 398.095 214.591C397.55 215.327 397.03 216.03 396.548 216.697C395.027 218.802 393.165 220.473 391.522 221.826C390.737 222.473 390.073 222.995 389.463 223.475C388.615 224.142 387.871 224.727 387.05 225.451C383.726 228.382 380.255 230.528 376.569 232.435C369.657 236.011 362.529 239.085 355.424 241.907C354.886 242.12 354.3 242.362 353.673 242.622C350.231 244.045 345.564 245.975 341.089 246.364C336.508 246.762 331.806 246.573 327.4 246.05C319.911 245.162 313.017 242.924 306.48 240.802C305.228 240.395 303.989 239.993 302.762 239.605C297.129 237.827 291.652 235.731 286.321 233.667C285.885 233.498 285.451 233.329 285.017 233.161C280.102 231.255 275.312 229.398 270.443 227.763C267.084 226.635 263.768 225.658 260.354 224.652C258.582 224.13 256.783 223.599 254.938 223.036C249.662 221.426 244.246 219.612 238.955 217.141C236.213 215.86 233.47 214.698 230.632 213.496C229.36 212.957 228.068 212.41 226.749 211.84C222.58 210.04 218.287 208.077 214.154 205.667C207.044 201.522 199.389 199.066 190.908 196.687C180.327 193.718 169.751 191.858 158.707 190.616C154.263 190.116 149.763 189.987 145.017 189.852C144.734 189.843 144.45 189.835 144.166 189.827C139.187 189.683 133.947 189.507 128.711 188.796C124.872 188.274 121.004 187.689 117.185 187.112C115.468 186.852 113.76 186.594 112.07 186.344C103.097 185.015 94.0562 185.44 84.5004 185.889C82.4824 185.984 80.4415 186.079 78.3734 186.16C71.4122 186.432 66.1272 189.401 59.542 194.224C56.4731 196.472 53.2409 198.47 50.205 200.347C49.9717 200.491 49.7396 200.635 49.5087 200.777C46.207 202.821 43.1409 204.75 40.3275 206.92C39.2927 207.718 38.308 208.629 37.1226 209.729L37.0821 209.767C35.9627 210.806 34.6513 212.023 33.1968 213.136C31.7407 214.25 30.2356 215.191 28.9008 216.007C28.6816 216.141 28.4681 216.272 28.2594 216.399C27.137 217.083 26.1559 217.681 25.2046 218.338C23.8944 219.242 22.6779 220.037 21.5226 220.792C19.5003 222.113 17.6657 223.312 15.8452 224.762C15.6584 224.911 15.4619 225.079 15.1754 225.325L15.1617 225.337C14.9023 225.56 14.5632 225.851 14.2013 226.139C13.5009 226.695 12.4927 227.42 11.2003 227.935C11.0019 228.197 10.8303 228.436 10.6775 228.669C10.1101 229.533 10.038 229.956 10.0623 230.323C10.0802 230.367 10.1354 230.473 10.282 230.651C10.5669 230.997 11.0408 231.417 11.7417 231.898C11.8235 231.92 12.0043 231.967 12.3339 232.029C12.3937 232.041 12.4681 232.055 12.5532 232.07C12.8684 232.129 13.3303 232.214 13.7398 232.307C14.3082 232.436 15.0485 232.635 15.8292 232.981C17.2392 233.606 18.2947 233.972 19.3781 234.141C22.3869 234.611 25.7019 234 29.5421 232.688C31.4431 232.039 33.3551 231.262 35.3596 230.432C35.562 230.348 35.7659 230.264 35.9711 230.178C37.7467 229.442 39.6157 228.667 41.4439 228.006C43.8807 227.124 46.0972 225.999 48.755 224.641L49.0011 224.516C50.9124 223.54 52.8477 222.735 54.6196 222.011C54.8396 221.922 55.0566 221.833 55.271 221.746C56.8376 221.108 58.2616 220.528 59.6545 219.874C62.3492 218.608 65.1764 217.553 67.7782 216.581C68.1955 216.425 68.607 216.271 69.0113 216.119C72.0356 214.982 74.75 213.904 77.2081 212.557C79.054 211.546 80.7328 210.476 82.5562 209.313C83.4275 208.758 84.3318 208.181 85.3032 207.58C88.1559 205.814 91.3504 203.999 95.0102 202.737C95.6554 202.514 96.2085 202.283 96.898 201.994C97.311 201.821 97.7728 201.627 98.3328 201.403C99.6226 200.886 101.278 200.281 103.111 200.01C105.164 199.706 107.07 200.274 108.067 200.596C108.535 200.747 109.01 200.918 109.373 201.049C109.447 201.076 109.515 201.101 109.578 201.123C110.022 201.283 110.254 201.358 110.399 201.397C111.689 201.737 112.956 202.011 114.345 202.311C114.873 202.425 115.419 202.543 115.99 202.67C117.971 203.109 120.145 203.635 122.317 204.417C124.086 205.054 125.985 205.837 127.743 206.561C128.737 206.971 129.686 207.362 130.541 207.697C133.458 208.842 136.447 209.85 139.576 210.905L139.679 210.939C142.805 211.993 146.071 213.096 149.298 214.375C149.763 214.56 150.229 214.744 150.695 214.929C156.566 217.254 162.516 219.612 168.405 222.173C173.985 224.601 180.101 226.119 186.525 227.714C187.674 227.999 188.832 228.287 189.999 228.583C194.21 229.649 198.533 230.634 202.913 231.631C213.39 234.017 224.195 236.477 234.58 240.321C236.734 241.119 238.919 241.839 241.206 242.592C241.439 242.669 241.672 242.746 241.907 242.823C244.413 243.65 247.031 244.524 249.63 245.536C251.315 246.191 252.844 246.828 254.31 247.438C256.772 248.462 259.054 249.412 261.586 250.251C263.766 250.973 265.969 251.652 268.229 252.347L268.435 252.411C270.613 253.08 272.843 253.766 275.066 254.497C276.616 255.006 278.181 255.648 279.543 256.206C279.909 256.355 280.26 256.499 280.592 256.633C282.281 257.312 283.698 257.825 285.071 258.117C293.408 259.894 301.937 260.545 310.458 260.117C311.116 260.084 311.77 260.052 312.422 260.02C319.371 259.681 325.992 259.358 332.23 257.959C333.154 257.751 334.121 257.516 335.124 257.271C338.46 256.458 342.198 255.546 346.087 255.258C353.45 254.714 360.969 253.827 368.158 252.521C368.444 252.469 368.728 252.417 369.011 252.366C375.686 251.156 381.673 250.072 386.903 247.448C391.22 245.282 395.961 241.82 399.135 238.322C405.061 231.792 409.503 222.457 413.336 213.542C417.2 204.554 420.074 195.017 422.379 185.304C423.955 178.664 423.947 171.909 423.938 164.4C423.937 163.836 423.937 163.268 423.937 162.695C423.937 162.386 423.937 162.078 423.937 161.772C423.941 154.364 423.945 147.626 421.642 141.975C419.321 136.276 417.297 131.451 414.019 127.43C411.261 124.049 407.129 120.466 403.42 118.28C399.847 116.175 395.88 114.99 391.326 113.63C390.061 113.252 388.751 112.861 387.391 112.433ZM10.0548 230.301L10.0623 230.323L10.0548 230.301ZM9.78967 216.701C11.9096 215.033 14.3819 213.412 16.5905 211.964C17.6434 211.273 18.6364 210.622 19.5026 210.024C20.7112 209.19 21.9732 208.421 23.0898 207.741C23.2863 207.622 23.4782 207.505 23.6646 207.391C24.9734 206.59 26.0903 205.882 27.0971 205.112C28.1287 204.322 29.1129 203.416 30.2926 202.321L30.3887 202.232C31.4902 201.209 32.7779 200.014 34.1979 198.919C37.4727 196.393 40.9513 194.216 44.2284 192.188C44.4385 192.058 44.6477 191.929 44.856 191.8C47.9638 189.878 50.875 188.078 53.6116 186.073C60.6011 180.954 67.9237 176.468 77.9827 176.076C79.8664 176.002 81.7826 175.911 83.7247 175.818C93.3011 175.362 103.507 174.875 113.538 176.36C115.295 176.62 117.039 176.884 118.774 177.146C122.555 177.718 126.298 178.284 130.061 178.795C134.7 179.425 139.442 179.595 144.455 179.739C144.771 179.749 145.088 179.758 145.406 179.767C150.057 179.899 154.951 180.039 159.828 180.587C171.275 181.874 182.401 183.821 193.617 186.968C202.211 189.379 210.92 192.11 219.207 196.941C222.808 199.041 226.658 200.814 230.725 202.57C231.906 203.08 233.12 203.595 234.353 204.117C237.27 205.353 240.288 206.631 243.199 207.992C247.848 210.163 252.733 211.815 257.865 213.381C259.512 213.884 261.213 214.385 262.94 214.895C266.468 215.935 270.108 217.009 273.635 218.193C278.735 219.905 283.737 221.845 288.612 223.736C289.057 223.908 289.501 224.081 289.944 224.252C295.282 226.32 300.489 228.308 305.781 229.979C307.16 230.414 308.499 230.848 309.81 231.272C316.337 233.384 322.155 235.266 328.581 236.028C332.471 236.49 336.469 236.636 340.22 236.31C343.014 236.067 345.944 234.872 349.421 233.453C350.162 233.151 350.928 232.838 351.723 232.523C358.656 229.77 365.451 226.832 371.959 223.465C375.183 221.797 377.896 220.087 380.41 217.87C381.37 217.024 382.573 216.072 383.628 215.237C384.195 214.788 384.72 214.372 385.141 214.026C386.579 212.841 387.647 211.822 388.405 210.773C389.02 209.922 389.631 209.092 390.229 208.278C393.283 204.127 396.023 200.402 397.475 196.424C398.477 193.679 398.97 190.717 399.374 187.339C399.463 186.594 399.549 185.814 399.638 185.008C399.932 182.34 400.256 179.396 400.826 176.569C402.07 170.395 402.914 164.237 403.793 157.824C403.915 156.934 404.038 156.039 404.162 155.139C404.688 151.335 403.345 147.489 400.458 143.885C398.078 140.912 394.573 139.27 389.964 138.446C384.391 137.45 379.068 137.231 374.402 138.664C367.49 140.787 360.835 146.341 356.802 152.714C353.139 158.503 350.751 164.686 348.131 171.468C347.526 173.036 346.908 174.636 346.258 176.271C344.549 180.578 341.854 185.901 337.1 189.35C337.1 189.35 337.064 189.377 336.906 189.505C336.753 189.629 336.715 189.661 336.673 189.696C336.627 189.734 336.576 189.775 336.37 189.943C335.953 190.282 335.378 190.74 334.746 191.177C334.148 191.591 333.297 192.129 332.32 192.51C331.487 192.835 329.607 193.431 327.517 192.634C323.759 191.202 319.879 187.898 317.692 185.337C315.815 183.14 314.41 180.281 313.421 177.638C312.411 174.941 311.689 172.078 311.359 169.616C310.496 163.188 311.555 156.777 314.545 150.983C316.226 147.726 318.22 144.785 320.143 142.077C320.66 141.347 321.166 140.643 321.661 139.954C323.064 138.003 324.381 136.171 325.626 134.231C328.278 130.1 331.185 126.307 334.578 122.689C344.275 112.352 357.533 104.214 371.994 101.852C378.437 100.8 383.614 100.665 390.404 102.804C391.407 103.12 392.476 103.437 393.591 103.768C398.279 105.157 403.774 106.785 408.514 109.578C413.284 112.39 418.319 116.767 421.803 121.04C426.153 126.373 428.676 132.567 430.899 138.026L430.953 138.156C434.036 145.725 434.014 154.353 433.997 161.225C433.996 161.725 433.995 162.215 433.995 162.695C433.995 163.322 433.996 163.954 433.997 164.591C434.012 171.867 434.028 179.786 432.164 187.641C429.771 197.725 426.734 207.857 422.571 217.54C418.761 226.402 413.759 237.196 406.572 245.116C402.463 249.646 396.683 253.824 391.401 256.474C384.831 259.77 377.513 261.088 371.201 262.225C370.779 262.301 370.362 262.376 369.95 262.451C362.351 263.831 354.474 264.757 346.827 265.323C343.839 265.544 341.216 266.181 338.091 266.941C336.95 267.218 335.742 267.512 334.425 267.807C327.293 269.408 319.802 269.769 313.006 270.096C312.317 270.13 311.635 270.163 310.961 270.196C301.596 270.666 292.195 269.953 282.98 267.989C280.718 267.507 278.634 266.718 276.849 266C276.387 265.814 275.952 265.636 275.535 265.465C274.233 264.933 273.113 264.475 271.935 264.087C269.805 263.387 267.656 262.726 265.452 262.048L265.28 261.995C263.033 261.304 260.73 260.595 258.434 259.834C255.596 258.894 252.654 257.675 249.932 256.546C248.548 255.973 247.221 255.422 245.993 254.944C243.666 254.039 241.275 253.238 238.766 252.41C238.529 252.332 238.291 252.254 238.052 252.175C235.793 251.431 233.433 250.654 231.098 249.789C221.353 246.182 211.584 243.96 201.402 241.644C196.874 240.613 192.263 239.565 187.537 238.367C186.474 238.098 185.384 237.828 184.275 237.554C177.883 235.972 170.826 234.226 164.404 231.432C158.675 228.94 152.874 226.642 146.973 224.304C146.516 224.123 146.06 223.942 145.603 223.761C142.657 222.594 139.635 221.571 136.475 220.506L136.271 220.437C133.214 219.406 130.024 218.331 126.876 217.095C125.659 216.617 124.574 216.169 123.538 215.74C121.984 215.097 120.538 214.499 118.919 213.915C117.368 213.357 115.702 212.941 113.818 212.523C113.372 212.424 112.904 212.323 112.421 212.219C110.964 211.905 109.369 211.56 107.839 211.156C107.227 210.995 106.625 210.781 106.193 210.626C106.093 210.591 105.999 210.557 105.91 210.525C105.555 210.397 105.275 210.296 104.985 210.202C104.69 210.107 104.492 210.056 104.366 210.03C103.769 210.143 103.049 210.38 102.063 210.775C101.807 210.878 101.499 211.006 101.158 211.148C100.294 211.509 99.2209 211.956 98.2799 212.281C95.6845 213.176 93.2424 214.523 90.5838 216.169C89.8547 216.62 89.082 217.112 88.2782 217.624C86.3183 218.873 84.1739 220.239 82.0282 221.415C78.8889 223.134 75.585 224.424 72.5417 225.569C72.1003 225.735 71.6654 225.898 71.2365 226.058C68.6116 227.04 66.2119 227.937 63.9185 229.014C62.2692 229.789 60.5842 230.474 59.0419 231.102C58.8283 231.189 58.6174 231.275 58.4097 231.359C56.6472 232.079 55.0607 232.745 53.5636 233.51L53.2056 233.692C50.6579 234.994 47.9313 236.386 44.8563 237.499C43.2581 238.077 41.6088 238.761 39.7961 239.512C39.5978 239.594 39.3975 239.677 39.1951 239.761C37.1928 240.59 35.0174 241.479 32.7834 242.242C28.3538 243.755 23.2087 244.952 17.8321 244.113C15.4912 243.748 13.5136 242.987 11.7709 242.215C11.7709 242.215 11.7095 242.193 11.518 242.149C11.3237 242.105 11.1577 242.075 10.9067 242.028C10.7826 242.005 10.6377 241.978 10.4584 241.944L10.4322 241.939C9.61102 241.783 7.89675 241.457 6.30671 240.393C4.20189 238.985 0.428212 236.047 0.0383388 231.157C-0.234188 227.739 0.991543 225.077 2.2767 223.119C2.89336 222.179 3.57422 221.326 4.12239 220.646C4.18697 220.566 4.24973 220.488 4.31082 220.412C4.81257 219.791 5.20124 219.309 5.55463 218.813C6.56507 217.393 8.17346 216.657 9.78967 216.701ZM134.676 262.437C127.623 261.406 119.753 262.019 112.032 262.923C108.897 263.29 105.68 263.704 102.429 264.123C97.4375 264.766 92.366 265.42 87.3914 265.927C80.311 266.649 73.5362 267.5 67.0538 269.28C62.4638 270.54 57.4246 273.697 53.2226 277.154C51.0603 278.933 48.9517 280.792 46.7681 282.716C46.5051 282.948 46.241 283.18 45.9756 283.414C43.5351 285.563 40.9989 287.776 38.3468 289.877C37.9297 290.208 37.5277 290.524 37.1387 290.829C35.8378 291.852 34.6824 292.76 33.5964 293.708C34.1641 294.86 34.2968 296.227 33.86 297.542C33.1256 299.752 32.8239 301.531 32.9581 302.88C33.0685 303.989 33.4566 304.845 34.55 305.653C36.3603 306.992 38.4287 308.274 40.4815 309.103C42.574 309.947 44.241 310.156 45.4685 309.91C53.821 308.234 62.8446 305.519 69.5433 301.414C71.7409 300.068 73.8214 298.46 76.0906 296.656C76.3374 296.46 76.5872 296.261 76.8398 296.059C78.8398 294.465 81.0198 292.727 83.3347 291.164C83.7035 290.916 84.1155 290.631 84.5584 290.325C85.7975 289.469 87.2786 288.446 88.7328 287.569C90.7512 286.351 93.2224 285.085 95.944 284.507C102.132 283.194 109.01 284.134 114.183 284.84C114.628 284.901 115.06 284.96 115.479 285.016C121.114 285.767 126.517 287.106 131.831 288.945C133.04 289.363 134.22 289.779 135.383 290.189C138.55 291.305 141.589 292.377 144.728 293.324C145.497 293.556 146.216 293.745 147.026 293.957C147.482 294.077 147.967 294.204 148.506 294.351C149.88 294.725 151.443 295.187 152.995 295.849C158.839 298.337 164.528 301.895 169.437 305.456C173.054 308.08 176.168 311.229 178.973 314.266C179.964 315.337 180.894 316.37 181.797 317.372C183.563 319.333 185.223 321.176 187.018 322.964C193.388 329.309 200.858 334.734 208.547 335.781C222.098 337.626 235.035 336.016 248.113 331.199C250.737 330.233 253.311 329.137 256.023 327.982C256.258 327.882 256.494 327.782 256.731 327.681C259.658 326.436 262.742 325.14 265.95 324.027C272.523 321.749 279.718 321.452 285.742 321.204C286.078 321.19 286.409 321.177 286.737 321.163C298.754 320.655 310.711 322.765 321.471 329.382C326.946 332.749 330.915 336.599 333.557 343.078C335.919 348.873 336.973 355.04 336.7 361.274C336.497 365.912 336.073 372.349 333.082 377.727C331.851 379.939 330.098 381.672 328.911 382.845C328.764 382.991 328.625 383.127 328.498 383.255C326.694 385.065 325.041 386.95 323.265 388.977C322.733 389.584 322.189 390.204 321.627 390.838C314.529 398.851 303.847 401.633 293.765 399.357C290.177 398.547 286.467 396.951 283.496 395.3C278.865 392.727 274.423 390.359 269.735 388.207C268.416 387.601 267.178 387.001 265.984 386.422C263.313 385.128 260.863 383.94 258.22 383.036C254.607 381.801 251.491 381.446 248.533 382.333C247.829 382.544 247.488 382.747 247.346 382.852C247.344 382.908 247.345 382.99 247.354 383.103C247.399 383.637 247.614 384.462 248.112 385.612C248.597 386.731 249.242 387.918 249.961 389.162C251.753 392.264 254.044 394.406 256.99 397.16C257.978 398.084 259.041 399.077 260.183 400.199C263.484 403.441 266.685 404.915 271.822 407.212L272.096 407.334C275.723 408.956 280.427 409.438 285.464 409.777C287.619 409.922 289.656 410.113 291.618 410.297C295.995 410.707 300 411.082 304.101 410.837C312.005 410.365 320.737 407.497 328.865 404.507C334.479 402.442 338.984 399.578 341.79 395.295C342.522 394.18 343.246 393.096 343.955 392.036C346.925 387.595 349.635 383.543 351.504 379.105C351.731 378.566 351.957 378.029 352.184 377.493C353.823 373.604 355.435 369.782 356.938 365.928C363.908 348.058 356.829 324.771 341.457 313.491C333.59 307.718 323.688 306.256 312.955 306.347C308.499 306.384 304.319 307.244 299.639 308.208C297.723 308.602 295.723 309.014 293.586 309.393L292.5 309.586C284.973 310.922 277.66 312.22 270.363 313.891C268.847 314.238 267.229 314.642 265.555 315.059C262.026 315.939 258.244 316.883 254.621 317.496C250.488 318.195 246.263 317.93 242.747 317.71C242.12 317.67 241.516 317.632 240.938 317.601C232.448 317.149 222.42 316.322 213.615 312.181C210.19 310.57 206.822 308.115 204.027 306.078C203.076 305.385 202.191 304.74 201.393 304.193L201.235 304.085C197.945 301.831 194.433 299.426 191.133 296.593C187.437 293.421 183.887 289.943 180.473 286.6C178.823 284.983 177.204 283.398 175.617 281.893C170.826 277.354 165.174 273.437 159.306 269.532C152.988 265.328 143.545 263.733 134.676 262.437ZM247.358 382.749L247.354 382.769L247.358 382.749ZM24.2192 294.652C22.828 292.682 23.0118 289.936 24.7705 288.171C26.8323 286.102 29.0397 284.371 31.0455 282.797C31.4091 282.512 31.766 282.232 32.1143 281.956C34.5403 280.035 36.9019 277.976 39.3417 275.828C39.6044 275.597 39.8683 275.365 40.1332 275.131C42.3002 273.221 44.5419 271.246 46.845 269.351C51.5403 265.488 57.8583 261.342 64.3991 259.546C71.7434 257.53 79.2286 256.615 86.3746 255.887C91.2831 255.387 96.0492 254.771 100.89 254.146C104.159 253.724 107.462 253.297 110.866 252.899C118.658 251.987 127.666 251.213 136.126 252.45C144.502 253.675 156.333 255.445 164.865 261.121C170.741 265.032 177.043 269.363 182.523 274.556C184.375 276.312 186.122 278.024 187.83 279.699C191.092 282.897 194.215 285.958 197.671 288.924C200.521 291.37 203.614 293.495 207.006 295.819L207.064 295.859C208.402 296.775 209.603 297.651 210.732 298.474C213.237 300.301 215.385 301.868 217.884 303.043C224.723 306.259 232.943 307.069 241.472 307.524C242.22 307.564 242.937 307.607 243.631 307.648C247.163 307.861 250.055 308.034 252.948 307.545C256.209 306.993 259.308 306.217 262.597 305.394C264.366 304.952 266.191 304.495 268.126 304.052C275.685 302.321 283.222 300.984 290.691 299.658L290.748 299.648L291.833 299.456C293.371 299.183 295.012 298.845 296.725 298.492C301.732 297.461 307.361 296.302 312.871 296.255C324.293 296.159 336.881 297.63 347.394 305.345C366.349 319.254 374.983 347.353 366.305 369.606C364.749 373.595 363.081 377.55 361.448 381.423C361.221 381.961 360.994 382.498 360.769 383.033C358.486 388.455 355.099 393.505 352.093 397.987C351.437 398.966 350.799 399.917 350.194 400.84C345.742 407.635 339.001 411.527 332.327 413.982C324.224 416.963 314.238 420.342 304.698 420.911C299.79 421.204 294.557 420.716 289.859 420.278C288.077 420.112 286.372 419.953 284.791 419.846C279.946 419.52 273.496 419.009 268.002 416.552L267.728 416.43L267.486 416.321C262.527 414.105 257.82 412 253.147 407.411C252.426 406.702 251.634 405.966 250.802 405.193C247.63 402.244 243.878 398.756 241.259 394.224C239.842 391.771 237.66 387.86 237.332 383.951C237.151 381.8 237.493 379.301 239.09 377.044C240.664 374.821 243.017 373.455 245.652 372.664C251.385 370.945 256.8 371.889 261.465 373.484C264.72 374.597 268.057 376.213 270.945 377.612C272.006 378.126 273.007 378.611 273.921 379.03C278.952 381.34 283.653 383.851 288.369 386.471C290.752 387.796 293.558 388.966 295.973 389.511C302.897 391.074 309.711 389.099 314.11 384.133C314.591 383.59 315.082 383.03 315.582 382.459C317.395 380.391 319.331 378.181 321.386 376.119C321.511 375.994 321.63 375.874 321.746 375.759C323.104 374.398 323.805 373.697 324.299 372.809C325.99 369.769 326.443 365.612 326.652 360.831C326.862 356.041 326.054 351.33 324.247 346.899C322.606 342.874 320.349 340.528 316.215 337.986C307.573 332.672 297.726 330.799 287.161 331.246L286.685 331.266C280.228 331.538 274.374 331.784 269.235 333.566C266.388 334.553 263.592 335.724 260.657 336.972C260.412 337.077 260.166 337.181 259.919 337.286C257.25 338.423 254.449 339.616 251.579 340.673C237.074 346.016 222.485 347.863 207.195 345.781C196.132 344.275 186.683 336.851 179.931 330.125C177.947 328.149 175.968 325.954 174.094 323.875C173.237 322.923 172.401 321.996 171.597 321.126C168.914 318.221 166.338 315.662 163.543 313.634C158.988 310.33 153.974 307.229 149.065 305.138C148.154 304.75 147.118 304.43 145.872 304.09C145.525 303.996 145.135 303.893 144.723 303.785C143.802 303.543 142.766 303.271 141.831 302.988C138.453 301.969 135.095 300.785 131.862 299.645C130.742 299.25 129.638 298.861 128.552 298.485C123.81 296.845 119.063 295.674 114.154 295.02C113.847 294.979 113.54 294.938 113.235 294.897C107.623 294.144 102.425 293.447 98.0256 294.381C96.9103 294.617 95.5603 295.225 93.9167 296.217C92.7446 296.924 91.6731 297.665 90.5251 298.458C90.0196 298.807 89.4992 299.166 88.9489 299.538C86.9865 300.863 85.1311 302.341 83.0918 303.965C82.8429 304.163 82.5913 304.364 82.3364 304.566C80.0618 306.374 77.5583 308.328 74.7857 310.027C66.6049 315.04 56.2357 318.041 47.441 319.805C43.5675 320.583 39.7995 319.705 36.7278 318.466C33.6163 317.21 30.7912 315.41 28.5836 313.778C24.9859 311.118 23.3153 307.556 22.9497 303.882C22.6204 300.573 23.3555 297.322 24.2192 294.652Z" fill="black"/>
<path d="M211.426 10.202C216.017 9.80908 220.456 10.4979 225.684 11.3092L227.254 11.5516C230.046 11.9795 232.753 12.7723 235.657 13.7444C236.5 14.0265 237.387 14.3341 238.304 14.6519C240.402 15.3795 242.656 16.1609 244.886 16.8135C246.725 17.3515 248.427 17.9802 250.313 18.6772C251.101 18.9682 251.92 19.2711 252.796 19.5842C253.995 20.0133 255.275 20.4128 256.433 20.7744C256.86 20.9075 257.27 21.0356 257.654 21.1581C259.178 21.6447 260.493 22.1049 261.677 22.6558C265.984 24.6601 269.455 27.6731 273.471 31.1595C274.833 32.3414 276.257 33.5778 277.798 34.8477C287.583 42.9125 296.804 51.3158 300.748 61.9328C302.764 67.3608 303.084 73.5084 302.29 79.7487C301.695 84.4218 300.882 89.1344 299.893 93.7554C299.548 95.3679 299.121 96.9613 298.655 98.7L298.425 99.5584C297.887 101.577 297.318 103.779 296.92 106.063L296.71 107.273C295.32 115.271 294 122.875 291.103 129.6C287.535 137.881 283.191 145.995 277.476 152.215C273.842 156.17 268.984 158.032 262.955 159.102C259.927 159.639 256.775 159.95 253.423 160.279L253.337 160.287C250.086 160.606 246.626 160.945 243.298 161.549C240.245 162.103 237.115 162.613 233.942 163.13C226.576 164.331 218.975 165.571 211.549 167.484C205.013 169.169 197.269 168.91 190.794 166.885C187.464 165.843 184.705 164.422 181.501 162.771C180.051 162.024 178.511 161.231 176.785 160.404C173.154 158.664 169.568 156.901 165.943 155.098C163.196 153.732 160.386 152.733 157.862 151.85L157.423 151.697C154.993 150.848 152.841 150.096 150.785 149.145C149.601 148.597 148.335 147.975 147.012 147.326C143.936 145.815 140.555 144.155 137.188 142.927C131.988 141.029 126.633 139.458 121.505 137.954L120.202 137.571C111.901 135.131 103.606 133.269 94.8932 132.263C88.0598 131.473 81.2176 130.82 73.4599 133.449C73.0238 133.596 72.5365 133.752 72.0122 133.92C69.8452 134.615 67.0463 135.511 64.6153 136.858C61.1424 138.781 57.9805 141.565 55.4654 143.779C55.157 144.05 54.8582 144.313 54.5699 144.565C50.3213 148.275 46.0658 151.744 41.5628 155.069C38.9518 156.997 35.2201 159.154 31.5931 160.213C27.8431 161.307 25.4323 160.915 23.9959 159.733C21.8667 157.982 20.5201 155.703 20.2872 153.484L20.2858 153.468C20.2858 153.468 20.3035 153.432 20.3199 153.403C20.3761 153.304 20.4845 153.142 20.6918 152.896C20.9029 152.647 21.1675 152.368 21.5274 152.007C21.9721 151.56 22.3161 151.051 22.5594 150.508C22.9914 149.967 23.3734 149.447 23.6898 149.015L23.8608 148.783C24.4508 147.982 24.8569 147.461 25.2806 147.036C25.4924 146.823 25.7668 146.564 26.082 146.266C27.1772 145.231 28.7642 143.731 29.9233 142.118C31.4339 140.017 33.1767 138.009 35.048 135.852C35.5662 135.255 36.0943 134.647 36.63 134.022C37.4112 133.11 38.3733 132.38 39.8119 131.288L40.6375 130.66C41.5108 129.992 42.3234 129.248 42.9474 128.676L43.1653 128.477C43.8866 127.819 44.3896 127.382 44.8706 127.047C45.7873 126.411 46.9791 125.953 48.8461 125.372L49.5266 125.164C51.1259 124.677 53.2469 124.031 55.1775 123.029C56.4414 122.373 57.692 121.679 58.8701 121.024L59.4103 120.724C60.7732 119.968 62.0507 119.27 63.3266 118.64C66.9425 116.856 71.9213 116.007 76.9199 115.233C82.9644 114.297 89.1517 114.958 95.9149 115.943C105.217 117.296 114.365 118.765 123.343 120.882C128.397 122.074 133.378 123.499 138.491 124.962C139.616 125.284 140.747 125.608 141.887 125.931C148.144 127.707 154.596 129.455 161.236 130.674C163.574 131.103 165.957 131.81 168.552 132.644C169.105 132.822 169.674 133.008 170.255 133.198C172.301 133.867 174.496 134.585 176.667 135.169C178.313 135.613 179.929 136.214 181.693 136.922C182.152 137.105 182.633 137.302 183.131 137.505C184.458 138.047 185.9 138.636 187.332 139.157C192.275 140.956 197.66 142.402 203.241 142.794C204.736 142.899 206.284 143.033 207.872 143.171C213.919 143.694 220.56 144.27 227.149 143.492C234.671 142.604 242.177 141.529 249.66 140.221C254.624 139.354 258.354 137.426 262.089 134.413C262.55 134.041 263.16 133.58 263.839 133.065C265.236 132.008 266.927 130.727 268.222 129.548C270.115 127.825 271.541 125.718 272.642 123.889C273.203 122.956 273.725 122.018 274.193 121.173L274.286 121.004C274.73 120.203 275.118 119.501 275.504 118.851C280.114 111.076 282.929 102.355 283.016 93.055C283.03 91.6356 283.059 90.1778 283.089 88.6894C283.329 76.8226 283.608 63.0001 276.086 51.0349C273.854 47.4851 270.559 44.9448 267.536 43.0227C265.63 41.8108 263.403 40.6007 261.492 39.5624C260.533 39.0415 259.654 38.5638 258.934 38.1508C255.692 36.289 252.133 34.8732 249.026 33.637C248.505 33.4295 247.996 33.227 247.503 33.0283C246.967 32.812 246.38 32.5629 245.752 32.2961C242.862 31.069 239.09 29.4673 235.281 28.9592C233.375 28.7049 231.471 28.4893 229.625 28.2801L229.603 28.2776C227.734 28.0658 225.921 27.8603 224.122 27.6203L223.731 27.5681C220.239 27.1013 216.167 26.557 211.703 27.4154C203.271 29.0371 193.146 32.9213 187.435 41.7173C182.21 49.7658 177.556 57.9823 174.177 67.3382C173.262 69.8713 172.436 72.678 171.666 75.292C171.239 76.7398 170.83 78.1285 170.433 79.3788C169.23 83.1687 167.922 86.5006 166.013 89.415C164.254 92.0981 161.543 93.335 159.827 92.9838C157.544 92.5166 154.527 90.9291 152.412 89.1803C152.352 89.1302 152.119 88.8976 151.835 88.1693C151.548 87.4306 151.339 86.5341 151.108 85.3848C150.068 80.1948 150.696 74.3072 152.152 68.5809C153.888 61.752 157.249 55.4177 162.089 50.6227C163.534 49.1902 164.988 47.8286 166.499 46.4129C167.19 45.7657 167.893 45.1071 168.613 44.4254C170.121 42.9966 171.462 41.4795 172.648 40.1261L172.884 39.8569C174.016 38.5643 175.009 37.4302 176.071 36.376C178.006 34.4544 180.193 32.715 182.627 30.831L183.385 30.2454C185.547 28.5761 187.899 26.7602 190.095 24.7575C192.467 22.5934 194.915 20.6018 197.483 18.5127C198.541 17.6514 199.62 16.7736 200.723 15.8604C204.68 12.5815 207.834 10.5095 211.426 10.202Z" fill="#BCE8EE"/>
<path d="M112.032 262.923C119.753 262.019 127.623 261.406 134.676 262.437C143.545 263.733 152.988 265.328 159.306 269.532C165.174 273.437 170.826 277.354 175.617 281.893C177.204 283.398 178.823 284.983 180.473 286.6C183.887 289.943 187.437 293.421 191.133 296.593C194.433 299.426 197.945 301.831 201.235 304.085L201.393 304.193C202.191 304.74 203.076 305.385 204.027 306.078C206.822 308.115 210.19 310.57 213.615 312.181C222.42 316.322 232.448 317.149 240.938 317.601C241.516 317.632 242.12 317.67 242.747 317.71C246.263 317.93 250.488 318.195 254.621 317.496C258.244 316.883 262.026 315.939 265.555 315.059C267.229 314.642 268.847 314.238 270.363 313.891C277.66 312.22 284.973 310.922 292.5 309.586L293.586 309.393C295.723 309.014 297.723 308.602 299.639 308.208C304.319 307.244 308.499 306.384 312.955 306.347C323.688 306.256 333.59 307.718 341.457 313.491C356.829 324.771 363.908 348.058 356.938 365.928C355.435 369.782 353.823 373.604 352.184 377.493L351.504 379.105C349.635 383.543 346.925 387.595 343.955 392.036C343.246 393.096 342.522 394.18 341.79 395.295C338.984 399.578 334.479 402.442 328.865 404.507C320.737 407.497 312.005 410.365 304.101 410.837C300 411.082 295.995 410.707 291.618 410.297C289.656 410.113 287.619 409.922 285.464 409.777C280.427 409.438 275.723 408.956 272.096 407.334L271.822 407.212C266.685 404.915 263.484 403.441 260.183 400.199C259.041 399.077 257.978 398.084 256.99 397.16C254.044 394.406 251.753 392.264 249.961 389.162C249.242 387.918 248.597 386.731 248.112 385.612C247.614 384.462 247.399 383.637 247.354 383.103C247.345 382.99 247.344 382.908 247.346 382.852C247.488 382.747 247.829 382.544 248.533 382.333C251.491 381.446 254.607 381.801 258.22 383.036C260.863 383.94 263.313 385.128 265.984 386.422C267.178 387.001 268.416 387.601 269.735 388.207C274.423 390.359 278.865 392.727 283.496 395.3C286.467 396.951 290.177 398.547 293.765 399.357C303.847 401.633 314.529 398.851 321.627 390.838C322.189 390.204 322.733 389.584 323.265 388.977C325.041 386.95 326.694 385.065 328.498 383.255L328.911 382.845C330.098 381.672 331.851 379.939 333.082 377.727C336.073 372.349 336.497 365.912 336.7 361.274C336.973 355.04 335.919 348.873 333.557 343.078C330.915 336.599 326.946 332.749 321.471 329.382C310.711 322.765 298.754 320.655 286.737 321.163L285.742 321.204C279.718 321.452 272.523 321.749 265.95 324.027C262.742 325.14 259.658 326.436 256.731 327.681L256.023 327.982C253.311 329.137 250.737 330.233 248.113 331.199C235.035 336.016 222.098 337.626 208.547 335.781C200.858 334.734 193.388 329.309 187.018 322.964C185.223 321.176 183.563 319.333 181.797 317.372C180.894 316.37 179.964 315.337 178.973 314.266C176.168 311.229 173.054 308.08 169.437 305.456C164.528 301.895 158.839 298.337 152.995 295.849C151.443 295.187 149.88 294.725 148.506 294.351C147.967 294.204 147.482 294.077 147.026 293.957C146.216 293.745 145.497 293.556 144.728 293.324C141.589 292.377 138.55 291.305 135.383 290.189C134.22 289.779 133.04 289.363 131.831 288.945C126.517 287.106 121.114 285.767 115.479 285.016L114.183 284.84C109.01 284.134 102.132 283.194 95.944 284.507C93.2224 285.085 90.7512 286.351 88.7328 287.569C87.2786 288.446 85.7975 289.469 84.5584 290.325C84.1155 290.631 83.7035 290.916 83.3347 291.164C81.0198 292.727 78.8398 294.465 76.8398 296.059L76.0906 296.656C73.8214 298.46 71.7409 300.068 69.5433 301.414C62.8446 305.519 53.821 308.234 45.4685 309.91C44.241 310.156 42.574 309.947 40.4815 309.103C38.4287 308.274 36.3603 306.992 34.55 305.653C33.4566 304.845 33.0685 303.989 32.9581 302.88C32.8239 301.531 33.1256 299.752 33.86 297.542C34.2968 296.227 34.1641 294.86 33.5964 293.708C34.6824 292.76 35.8378 291.852 37.1387 290.829C37.5277 290.524 37.9297 290.208 38.3468 289.877C40.9989 287.776 43.5351 285.563 45.9756 283.414L46.7681 282.716C48.9517 280.792 51.0603 278.933 53.2226 277.154C57.4246 273.697 62.4638 270.54 67.0538 269.28C73.5362 267.5 80.311 266.649 87.3914 265.927C92.366 265.42 97.4375 264.766 102.429 264.123C105.68 263.704 108.897 263.29 112.032 262.923Z" fill="#BCE8EE"/>
<path d="M387.391 112.433C382.544 110.906 379.045 110.925 373.611 111.813C361.727 113.754 350.38 120.569 341.903 129.606C338.964 132.739 336.43 136.039 334.082 139.696C332.68 141.879 331.142 144.019 329.698 146.028L329.691 146.038C329.227 146.683 328.773 147.315 328.336 147.93C326.478 150.548 324.821 153.02 323.477 155.624C321.46 159.532 320.734 163.847 321.327 168.269C321.548 169.919 322.07 172.043 322.836 174.089C323.623 176.19 324.526 177.83 325.328 178.769C326.45 180.082 328.139 181.518 329.616 182.439C329.752 182.333 329.893 182.22 330.04 182.1L330.579 181.66C330.741 181.528 330.973 181.341 331.206 181.173C333.566 179.461 335.384 176.39 336.915 172.536C337.482 171.108 338.045 169.646 338.616 168.163C341.25 161.324 344.065 154.015 348.311 147.305C353.413 139.242 361.893 131.952 371.457 129.015C378.344 126.899 385.506 127.399 391.728 128.51C397.675 129.573 403.835 131.99 408.299 137.563C412.385 142.666 415.134 149.221 414.125 156.525L413.76 159.185C412.885 165.568 411.996 172.061 410.684 178.57C410.212 180.913 409.956 183.226 409.674 185.786C409.576 186.672 409.475 187.587 409.36 188.542C408.935 192.093 408.338 196.009 406.919 199.895C404.92 205.372 401.133 210.487 398.095 214.591C397.55 215.327 397.03 216.03 396.548 216.697C395.027 218.802 393.165 220.473 391.522 221.826C390.737 222.473 390.073 222.995 389.463 223.475C388.615 224.142 387.871 224.727 387.05 225.451C383.726 228.382 380.255 230.528 376.569 232.435C369.657 236.011 362.529 239.085 355.424 241.907C354.886 242.12 354.3 242.362 353.673 242.622C350.231 244.045 345.564 245.975 341.089 246.364C336.508 246.762 331.806 246.573 327.4 246.05C319.911 245.162 313.017 242.924 306.48 240.802C305.228 240.395 303.989 239.993 302.762 239.605C297.129 237.827 291.652 235.731 286.321 233.667L285.017 233.161C280.102 231.255 275.312 229.398 270.443 227.763C267.084 226.635 263.768 225.658 260.354 224.652C258.582 224.13 256.783 223.599 254.938 223.036C249.662 221.426 244.246 219.612 238.955 217.141C236.213 215.86 233.47 214.698 230.632 213.496C229.36 212.957 228.068 212.41 226.749 211.84C222.58 210.04 218.287 208.077 214.154 205.667C207.044 201.522 199.389 199.066 190.908 196.687C180.327 193.718 169.751 191.858 158.707 190.616C154.263 190.116 149.763 189.987 145.017 189.852L144.166 189.827C139.187 189.683 133.947 189.507 128.711 188.796C124.872 188.274 121.004 187.689 117.185 187.112C115.468 186.852 113.76 186.594 112.07 186.344C103.097 185.015 94.0562 185.44 84.5004 185.889C82.4824 185.984 80.4415 186.079 78.3734 186.16C71.4122 186.432 66.1272 189.401 59.542 194.224C56.4731 196.472 53.2409 198.47 50.205 200.347L49.5087 200.777C46.207 202.821 43.1409 204.75 40.3275 206.92C39.2927 207.718 38.308 208.629 37.1226 209.729L37.0821 209.767C35.9627 210.806 34.6513 212.023 33.1968 213.136C31.7407 214.25 30.2356 215.191 28.9008 216.007L28.2594 216.399C27.137 217.083 26.1559 217.681 25.2046 218.338C23.8944 219.242 22.6779 220.037 21.5226 220.792C19.5003 222.113 17.6657 223.312 15.8452 224.762C15.6584 224.911 15.4619 225.079 15.1754 225.325L15.1617 225.337C14.9023 225.56 14.5632 225.851 14.2013 226.139C13.5009 226.695 12.4927 227.42 11.2003 227.935C11.0019 228.197 10.8303 228.436 10.6775 228.669C10.1101 229.533 10.038 229.956 10.0623 230.323C10.0802 230.367 10.1354 230.473 10.282 230.651C10.5669 230.997 11.0408 231.417 11.7417 231.898C11.8235 231.92 12.0043 231.967 12.3339 232.029L12.5532 232.07C12.8684 232.129 13.3303 232.214 13.7398 232.307C14.3082 232.436 15.0485 232.635 15.8292 232.981C17.2392 233.606 18.2947 233.972 19.3781 234.141C22.3869 234.611 25.7019 234 29.5421 232.688C31.4431 232.039 33.3551 231.262 35.3596 230.432L35.9711 230.178C37.7467 229.442 39.6157 228.667 41.4439 228.006C43.8807 227.124 46.0972 225.999 48.755 224.641L49.0011 224.516C50.9124 223.54 52.8477 222.735 54.6196 222.011L55.271 221.746C56.8376 221.108 58.2616 220.528 59.6545 219.874C62.3492 218.608 65.1764 217.553 67.7782 216.581L69.0113 216.119C72.0356 214.982 74.75 213.904 77.2081 212.557C79.054 211.546 80.7328 210.476 82.5562 209.313C83.4275 208.758 84.3318 208.181 85.3032 207.58C88.1559 205.814 91.3504 203.999 95.0102 202.737C95.6554 202.514 96.2085 202.283 96.898 201.994C97.311 201.821 97.7728 201.627 98.3328 201.403C99.6226 200.886 101.278 200.281 103.111 200.01C105.164 199.706 107.07 200.274 108.067 200.596C108.535 200.747 109.01 200.918 109.373 201.049L109.578 201.123C110.022 201.283 110.254 201.358 110.399 201.397C111.689 201.737 112.956 202.011 114.345 202.311C114.873 202.425 115.419 202.543 115.99 202.67C117.971 203.109 120.145 203.635 122.317 204.417C124.086 205.054 125.985 205.837 127.743 206.561C128.737 206.971 129.686 207.362 130.541 207.697C133.458 208.842 136.447 209.85 139.576 210.905L139.679 210.939C142.805 211.993 146.071 213.096 149.298 214.375L150.695 214.929C156.566 217.254 162.516 219.612 168.405 222.173C173.985 224.601 180.101 226.119 186.525 227.714C187.674 227.999 188.832 228.287 189.999 228.583C194.21 229.649 198.533 230.634 202.913 231.631C213.39 234.017 224.195 236.477 234.58 240.321C236.734 241.119 238.919 241.839 241.206 242.592L241.907 242.823C244.413 243.65 247.031 244.524 249.63 245.536C251.315 246.191 252.844 246.828 254.31 247.438C256.772 248.462 259.054 249.412 261.586 250.251C263.766 250.973 265.969 251.652 268.229 252.347L268.435 252.411C270.613 253.08 272.843 253.766 275.066 254.497C276.616 255.006 278.181 255.648 279.543 256.206C279.909 256.355 280.26 256.499 280.592 256.633C282.281 257.312 283.698 257.825 285.071 258.117C293.408 259.894 301.937 260.545 310.458 260.117L312.422 260.02C319.371 259.681 325.992 259.358 332.23 257.959C333.154 257.751 334.121 257.516 335.124 257.271C338.46 256.458 342.198 255.546 346.087 255.258C353.45 254.714 360.969 253.827 368.158 252.521L369.011 252.366C375.686 251.156 381.673 250.072 386.903 247.448C391.22 245.282 395.961 241.82 399.135 238.322C405.061 231.792 409.503 222.457 413.336 213.542C417.2 204.554 420.074 195.017 422.379 185.304C423.955 178.664 423.947 171.909 423.938 164.4L423.937 162.695L423.937 161.772C423.941 154.364 423.945 147.626 421.642 141.975C419.321 136.276 417.297 131.451 414.019 127.43C411.261 124.049 407.129 120.466 403.42 118.28C399.847 116.175 395.88 114.99 391.326 113.63C390.061 113.252 388.751 112.861 387.391 112.433Z" fill="#BCE8EE"/>
</g>
</g>
</svg>
